<svg xmlns="http://www.w3.org/2000/svg" viewBox="0 0 111.98 71.36"><title>Credit</title><g id="b6fe741d-02da-4cdd-8d41-138961cc7fc7" data-name="Layer 2"><g id="fbda6bb5-ef13-48c9-a809-41508c9b307c" data-name="Layer 1"><path d="M39.26,55.81l-.1.37a3,3,0,0,0,0,1.64,3.34,3.34,0,0,0,1.42,1.69l.07,0a3.73,3.73,0,0,0,1.31.29,2.35,2.35,0,0,0,.84-.16l11.86-3.87Z" fill="none"/><path d="M106.17,19.77l0,.05Z" fill="none"/><path d="M67.84,56.47a2.7,2.7,0,0,0-1.2-.3,1.84,1.84,0,0,0-.88.15l-12.28,4-5.37,1.78a3.24,3.24,0,0,0-1.34,1.31,2.85,2.85,0,0,0-.13,2.15,3,3,0,0,0,2.82,2,2.86,2.86,0,0,0,.82-.12l17.25-5.55a3,3,0,0,0,1.87-3.66Z" fill="none"/><path d="M63.88,48.35V23.84l-.55.06a57.67,57.67,0,0,1-9.56.21,8.39,8.39,0,0,1-7-4,7.72,7.72,0,0,1-1.24-3.38A9.12,9.12,0,0,1,47,10.79l.53-.78H7.46a3.68,3.68,0,0,0-3.64,3.63V48.35A3.69,3.69,0,0,0,7.46,52H38a2.7,2.7,0,0,1,.63,0H60.25A3.68,3.68,0,0,0,63.88,48.35ZM9.64,17.74a1.91,1.91,0,0,1,1.91-1.91H21.2a1.91,1.91,0,0,1,1.91,1.91v9.64a1.92,1.92,0,0,1-1.91,1.91H11.55a1.92,1.92,0,0,1-1.91-1.91ZM28.43,46.17H11.55a1.92,1.92,0,0,1,0-3.83H28.43a1.92,1.92,0,0,1,0,3.83Zm16.87,0H36.87a1.92,1.92,0,0,1,0-3.83H45.3a1.92,1.92,0,0,1,0,3.83ZM55,37.73H11.55a1.91,1.91,0,0,1,0-3.82H55a1.91,1.91,0,0,1,0,3.82Z" fill="none"/><rect x="13.46" y="19.65" width="5.82" height="5.82" fill="none"/><path d="M107,22.05c0-.05,0-.09,0-.13,0,.12.07.24.11.37A2.17,2.17,0,0,0,107,22.05Z" fill="none"/><path d="M89.9,54.67l.19-.05a1.42,1.42,0,0,1,.33-.12l0,0Z" fill="none"/><path d="M86.19,36.34c8.56-7,6.62-16.69,19.92-16.69A25.35,25.35,0,0,0,78.5,4.47a22,22,0,0,0-5.56,1.72c-5.4,2.4-12.6,5.05-16.55,5.26a8.11,8.11,0,0,1-1.68-.1l-.06,0h-.14a4.59,4.59,0,0,0-3.75,1.33,4.52,4.52,0,0,0-1.38,3.87A4,4,0,0,0,50,18.26a4.42,4.42,0,0,0,4.11,2.27h0a51.09,51.09,0,0,0,16.44-1.59,5.66,5.66,0,0,1,5.21.87,5.42,5.42,0,0,1,1.87,4.32,1.81,1.81,0,0,1-.6,1.31,1.88,1.88,0,0,1-1.43.48,1.77,1.77,0,0,1-1.31-.6,1.87,1.87,0,0,1-.48-1.44c0-.33,0-1-.52-1.29a2.92,2.92,0,0,0-1.8-.15c-1,.26-2.06.49-3.34.74l-.4.08V38.41S78.8,42.34,86.19,36.34Z" fill="none"/><path d="M67.84,56.47l1.56,1.71A3.23,3.23,0,0,0,67.84,56.47Z" fill="#ccf6e7"/><path d="M105.42,41.71a26,26,0,0,0,1.66-19.42c0-.13-.08-.25-.11-.37-.24-.72-.49-1.42-.78-2.1l0-.05-.06-.12c-13.3,0-11.36,9.74-19.92,16.69-7.39,6-18.48,2.07-18.48,2.07v9.94a7.33,7.33,0,0,1-.81,3.32l-.34.66.73.07a7,7,0,0,1,5.87,4.67,6.67,6.67,0,0,1,.33,2.15v.69l16-5.17a1.94,1.94,0,0,1,.46-.07l.56-.19A25.24,25.24,0,0,0,105.42,41.71Z" fill="#ccf6e7"/><path d="M110.52,20.67h0A29.27,29.27,0,0,0,77.81.39a31.53,31.53,0,0,0-6.53,2C67.42,4,64.08,5.3,61.37,6.16l-.15,0H7.46A7.56,7.56,0,0,0,0,13.64V48.35a7.56,7.56,0,0,0,7.46,7.46H35.32l0,.54a6.89,6.89,0,0,0,.27,2.71,6.72,6.72,0,0,0,6.39,4.7l.23,0,.55,0,0,.55A6.56,6.56,0,0,0,43,66.76a6.73,6.73,0,0,0,6.39,4.6,14.24,14.24,0,0,0,2.21-.24L68.78,65.6A7.28,7.28,0,0,0,70,65.05l.09,0,20.51-6.65a1,1,0,0,0,.25-.09l.21-.06h0v-.1l.35-.11a29,29,0,0,0,17.3-14.69A29.63,29.63,0,0,0,110.52,20.67ZM38,52H7.46a3.69,3.69,0,0,1-3.64-3.64V13.64A3.68,3.68,0,0,1,7.46,10h40.1l-.53.78a9.12,9.12,0,0,0-1.47,5.94,7.72,7.72,0,0,0,1.24,3.38,8.39,8.39,0,0,0,7,4,57.67,57.67,0,0,0,9.56-.21l.55-.06V48.35A3.68,3.68,0,0,1,60.25,52H38.66A2.7,2.7,0,0,0,38,52Zm4.78,7.7a2.35,2.35,0,0,1-.84.16,3.73,3.73,0,0,1-1.31-.29l-.07,0a3.34,3.34,0,0,1-1.42-1.69,3,3,0,0,1,0-1.64l.1-.37H54.67Zm24.72,2.16L50.28,67.39a2.86,2.86,0,0,1-.82.12,3,3,0,0,1-2.82-2,2.85,2.85,0,0,1,.13-2.15,3.24,3.24,0,0,1,1.34-1.31l5.37-1.78,12.28-4a1.84,1.84,0,0,1,.88-.15,2.7,2.7,0,0,1,1.2.3,3.23,3.23,0,0,1,1.56,1.71A3,3,0,0,1,67.53,61.84Zm22.56-7.22-.19.05a1.94,1.94,0,0,0-.46.07l-16,5.17v-.69a6.67,6.67,0,0,0-.33-2.15,7,7,0,0,0-5.87-4.67l-.73-.07.34-.66a7.33,7.33,0,0,0,.81-3.32V23.26l.4-.08c1.28-.25,2.35-.48,3.34-.74a2.92,2.92,0,0,1,1.8.15c.52.26.52,1,.52,1.29a1.87,1.87,0,0,0,.48,1.44,1.77,1.77,0,0,0,1.31.6A1.88,1.88,0,0,0,77,25.44a1.81,1.81,0,0,0,.6-1.31,5.42,5.42,0,0,0-1.87-4.32,5.66,5.66,0,0,0-5.21-.87,51.09,51.09,0,0,1-16.44,1.59h0A4.42,4.42,0,0,1,50,18.26a4,4,0,0,1-.57-1.73,4.52,4.52,0,0,1,1.38-3.87,4.59,4.59,0,0,1,3.75-1.33h.14l.06,0a8.11,8.11,0,0,0,1.68.1c4-.21,11.15-2.86,16.55-5.26A22,22,0,0,1,78.5,4.47a25.35,25.35,0,0,1,27.61,15.18l.06.12,0,.05c.29.68.54,1.38.78,2.1,0,0,0,.08,0,.13a2.17,2.17,0,0,1,.07.24,26,26,0,0,1-1.66,19.42,25.24,25.24,0,0,1-15,12.77l0,0A1.42,1.42,0,0,0,90.09,54.62Z" fill="#22364c"/><path d="M55,33.91H11.55a1.91,1.91,0,0,0,0,3.82H55a1.91,1.91,0,0,0,0-3.82Z" fill="#22364c"/><path d="M28.43,42.34H11.55a1.92,1.92,0,0,0,0,3.83H28.43a1.92,1.92,0,0,0,0-3.83Z" fill="#22364c"/><path d="M45.3,42.34H36.87a1.92,1.92,0,0,0,0,3.83H45.3a1.92,1.92,0,0,0,0-3.83Z" fill="#22364c"/><path d="M11.55,29.29H21.2a1.92,1.92,0,0,0,1.91-1.91V17.74a1.91,1.91,0,0,0-1.91-1.91H11.55a1.91,1.91,0,0,0-1.91,1.91v9.64A1.92,1.92,0,0,0,11.55,29.29Zm1.91-9.64h5.83v5.82H13.46Z" fill="#24b498"/></g></g></svg>