<svg xmlns="http://www.w3.org/2000/svg" viewBox="0 0 74.91 74.91"><title>Free</title><g id="b301ade6-c8b4-41f7-8b23-958ff7d52a86" data-name="Layer 2"><g id="b038f8f9-7dc3-4116-93b1-02ec11bdd4b8" data-name="Layer 1"><path d="M33.3,18.1a22.68,22.68,0,0,0,2.24.56c-.26-4.49-4.87-14.91-9.32-14.91-5.34,0-9.37,4.54-9.37,7.49s4.29,5.61,9.37,5.61A25.51,25.51,0,0,1,33.3,18.1Z" fill="none"/><rect x="3.75" y="22.44" width="22.47" height="7.49" fill="none"/><path d="M48.69,16.85c5.08,0,9.36-2.57,9.36-5.61s-4-7.49-9.36-7.49c-4.58,0-9.31,11-9.36,14.91a18.44,18.44,0,0,0,2.28-.56A25.44,25.44,0,0,1,48.69,16.85Z" fill="none"/><rect x="11.24" y="33.67" width="14.98" height="37.49" fill="none"/><rect x="48.69" y="33.67" width="14.98" height="37.49" fill="none"/><rect x="48.69" y="22.44" width="22.47" height="7.49" fill="none"/><rect x="29.96" y="33.67" width="14.98" height="37.49" fill="#ccf6e7"/><rect x="29.96" y="22.44" width="14.98" height="7.49" fill="#ccf6e7"/><path d="M73,18.69H56.63a86.36,86.36,0,0,1-19.18,1.93,86.2,86.2,0,0,1-19.17-1.93H1.87A1.88,1.88,0,0,0,0,20.57V31.8a1.87,1.87,0,0,0,1.87,1.87H7.49V73a1.87,1.87,0,0,0,1.87,1.87H65.54A1.88,1.88,0,0,0,67.42,73V33.67H73a1.87,1.87,0,0,0,1.87-1.87V20.57A1.88,1.88,0,0,0,73,18.69ZM30,22.44H45v7.49H30Zm0,11.23H45V71.16H30ZM26.22,71.16h-15V33.67h15Zm0-41.23H3.75V22.44H26.22ZM63.67,71.16h-15V33.67h15Zm7.49-41.23H48.69V22.44H71.16Z" fill="#22364c"/><path d="M37.45,20.62a86.36,86.36,0,0,0,19.18-1.93c3.14-1.69,5.17-4.36,5.17-7.45C61.8,6.15,56,0,48.69,0c-5,0-9,5.87-11.24,11.29C35.26,5.87,31.27,0,26.22,0,19,0,13.11,6.15,13.11,11.24c0,3.09,2,5.76,5.17,7.45A86.2,86.2,0,0,0,37.45,20.62ZM48.69,3.75c5.34,0,9.36,4.54,9.36,7.49s-4.28,5.61-9.36,5.61a25.44,25.44,0,0,0-7.08,1.25,18.44,18.44,0,0,1-2.28.56C39.38,14.75,44.11,3.75,48.69,3.75ZM16.85,11.24c0-3,4-7.49,9.37-7.49,4.45,0,9.06,10.42,9.32,14.91a22.68,22.68,0,0,1-2.24-.56,25.51,25.51,0,0,0-7.08-1.25C21.14,16.85,16.85,14.28,16.85,11.24Z" fill="#24b498"/></g></g></svg>