<svg xmlns="http://www.w3.org/2000/svg" viewBox="0 0 60.33 74.87"><title>Secure</title><g id="ee7905e1-1612-43ec-bbee-4f36c0d95582" data-name="Layer 2"><g id="b287ba75-921e-4faf-9690-1515edf9815d" data-name="Layer 1"><path d="M31,43.59l-5.81,6.16L15.12,39.66l3.54-3.55,6.45,6.45L31,36.28v-32l-.59-.12c-.59.13-1.19.24-1.78.35l-1.21.23L5.35,9.12l-1.28.26V46.1a26.48,26.48,0,0,0,.73,2.67c.08.24.17.47.26.7l.19.48.21.47h0l0,.08c.09.2.19.4.29.6a26.51,26.51,0,0,0,1.39,2.44c.26.41.53.79.8,1.18l.41.55a1.47,1.47,0,0,1,.1.13h0l0,0a1.31,1.31,0,0,1,.12.15,37,37,0,0,0,3.86,4.13c.63.59,1.32,1.19,2.1,1.83l.37.3h0l.44.35,1.11.82c1.4,1,2.87,2,4.36,2.88a68.78,68.78,0,0,0,7.38,3.84l1,.43.18.08.75.31.19.07.64-.3Z" fill="none"/><path d="M41.56,25.11l3.65,3.44L31,43.59V70.32q1.39-.64,2.61-1.26A80.43,80.43,0,0,0,40.86,65c1-.62,2-1.31,3-2.05l1-.77,0,0,0,0,1.24-1a41.46,41.46,0,0,0,4.07-3.84c.58-.62,1.09-1.21,1.56-1.8l.28-.36.21-.27c.21-.27.4-.55.6-.83a26.67,26.67,0,0,0,1.83-3.11l.33-.7.06-.13s0,0,0,0l.06-.15c.16-.4.31-.81.44-1.22a13.92,13.92,0,0,0,.48-1.9.78.78,0,0,0,0-.14s0-.1,0-.15,0-.28,0-.43c0-.36,0-.71,0-1.06V9.28l-.84-.18-1-.22L31,4.25v32Z" fill="#ccf6e7"/><polygon points="41.56 25.11 31.03 36.28 25.11 42.56 18.66 36.11 15.12 39.66 25.22 49.75 31.03 43.59 45.21 28.55 41.56 25.11" fill="#24b498"/><path d="M58.79,5.59,33.56.58,31,.09A2.18,2.18,0,0,0,30,.05L27.13.61l-15,3c-2.33.5-4.69,1-7,1.44l-1.22.23c-.74.13-1.5.27-2.25.46H1.54A2.07,2.07,0,0,0,0,7.72V46.27a7.57,7.57,0,0,0,.25,1.45L.31,48a23.64,23.64,0,0,0,.91,2.87,31.41,31.41,0,0,0,6.86,10.3,51.31,51.31,0,0,0,9.06,7.26,69.17,69.17,0,0,0,8.08,4.44,47.2,47.2,0,0,0,4.57,1.94,2,2,0,0,0,.63.1,3.94,3.94,0,0,0,1.69-.52l.31-.15c1.45-.67,2.88-1.36,4.23-2.06A79.41,79.41,0,0,0,43.79,68a50.42,50.42,0,0,0,9.76-8.2,30.44,30.44,0,0,0,4.88-7.06,18.65,18.65,0,0,0,1.7-5,12.25,12.25,0,0,0,.2-2V7.58A2.08,2.08,0,0,0,58.79,5.59Zm-28.4,65-.19-.07-.75-.31-.18-.08-1-.43a68.78,68.78,0,0,1-7.38-3.84c-1.49-.9-3-1.87-4.36-2.88l-1.11-.82L15,61.84h0l-.37-.3c-.78-.64-1.47-1.24-2.1-1.83a37,37,0,0,1-3.86-4.13,1.31,1.31,0,0,0-.12-.15l0,0h0a1.47,1.47,0,0,0-.1-.13L8,54.72c-.27-.39-.54-.77-.8-1.18A26.51,26.51,0,0,1,5.78,51.1c-.1-.2-.2-.4-.29-.6l0-.08h0L5.25,50l-.19-.48c-.09-.23-.18-.46-.26-.7a26.48,26.48,0,0,1-.73-2.67V9.38l1.28-.26,22.1-4.41,1.21-.23c.59-.11,1.19-.22,1.78-.35l.59.12L54.35,8.88l1,.22.84.18V44.94c0,.35,0,.7,0,1.06,0,.15,0,.3,0,.43s0,.12,0,.15a.78.78,0,0,1,0,.14,13.92,13.92,0,0,1-.48,1.9c-.13.41-.28.82-.44,1.22l-.06.15s0,0,0,0l-.06.13-.33.7A26.67,26.67,0,0,1,52.92,54c-.2.28-.39.56-.6.83l-.21.27-.28.36c-.47.59-1,1.18-1.56,1.8a41.46,41.46,0,0,1-4.07,3.84l-1.24,1,0,0,0,0-1,.77c-1,.74-2,1.43-3,2.05a80.43,80.43,0,0,1-7.22,4.11q-1.22.61-2.61,1.26Z" fill="#22364c"/></g></g></svg>