<?xml version="1.0" encoding="UTF-8"?><svg xmlns="http://www.w3.org/2000/svg" xmlns:xlink="http://www.w3.org/1999/xlink" viewBox="0 0 150 150"><defs><style>.cls-1{fill:url(#linear-gradient);}.cls-1,.cls-2,.cls-3{opacity:.2;}.cls-1,.cls-2,.cls-3,.cls-4,.cls-5,.cls-6,.cls-7,.cls-8{stroke-width:0px;}.cls-2{fill:url(#linear-gradient-3);}.cls-3{fill:url(#linear-gradient-2);}.cls-9{mix-blend-mode:multiply;}.cls-4{fill:url(#linear-gradient-4);}.cls-10{isolation:isolate;}.cls-5{fill:#22364c;}.cls-6{fill:#a6d7e8;}.cls-7{fill:#abdfff;}.cls-8{fill:#fff;}</style><linearGradient id="linear-gradient" x1="45.35" y1="101.5" x2="116.25" y2="101.5" gradientUnits="userSpaceOnUse"><stop offset="0" stop-color="#00f282"/><stop offset="1" stop-color="#00ba8f"/></linearGradient><linearGradient id="linear-gradient-2" x1="34.56" y1="112.36" x2="55.66" y2="112.36" xlink:href="#linear-gradient"/><linearGradient id="linear-gradient-3" x1="65.75" y1="50.56" x2="113.96" y2="50.56" xlink:href="#linear-gradient"/><linearGradient id="linear-gradient-4" x1="81.34" y1="50.61" x2="98.48" y2="50.61" xlink:href="#linear-gradient"/></defs><g class="cls-10"><g id="Layer_2"><g id="Layer_1-2"><circle class="cls-7" cx="75" cy="75" r="75"/><g class="cls-9"><path class="cls-6" d="m117.03,93.85v-.02c-.97-4.18-4.98-6.72-9.14-5.78l-16.66,3.54-.19-.28c-1.15-1.68-3.01-2.7-5.09-2.8l-24.5-1.45c-.31-.02-.62-.03-.94-.03-3.09,0-6.02.99-8.34,2.83l-13.66,10.3-11.24,11.36c-.33.33-.53.87-.53,1.44,0,.42.1,1,.6,1.4l16.03,15.69c.33.33.87.53,1.44.53.42,0,1.01-.1,1.4-.59l10.16-10.28,17.24,1.93c5.66.66,11.34-.7,16-3.83l24.28-15.89c2.65-1.59,3.97-4.98,3.15-8.07Z"/><circle class="cls-6" cx="86.86" cy="53.56" r="28.14"/></g><path class="cls-8" d="m111.79,88.88l-16.37,3.43-.03.38c-.21,2.95-2.31,5.42-5.21,6.15l-5.93,1.45c-2.62.63-5.43.89-8.37.77l-6.95-.22c-.56,0-1.09-.23-1.47-.64-.35-.39-.54-.89-.49-1.43,0-.56.23-1.09.64-1.47.39-.36.89-.54,1.4-.49l6.83.45c2.5.11,4.89-.11,7.3-.68l5.95-1.46c1.37-.41,2.28-1.67,2.15-2.94,0-1.33-1.13-2.48-2.6-2.62l-24.5-1.45c-2.45-.12-4.82.59-6.7,2l-12.1,9.08,13.84,13.5.12.12,17.52,2.04c.69.07,1.38.1,2.07.1,4.04,0,8-1.15,11.34-3.31l24.26-15.87c1.31-.72,1.97-2.28,1.68-4.02-.5-2.01-2.39-3.23-4.39-2.83Z"/><path class="cls-1" d="m111.79,88.88l-16.37,3.43-.03.38c-.21,2.95-2.31,5.42-5.21,6.15l-5.93,1.45c-2.62.63-5.43.89-8.37.77l-6.95-.22c-.56,0-1.09-.23-1.47-.64-.35-.39-.54-.89-.49-1.43,0-.56.23-1.09.64-1.47.39-.36.89-.54,1.4-.49l6.83.45c2.5.11,4.89-.11,7.3-.68l5.95-1.46c1.37-.41,2.28-1.67,2.15-2.94,0-1.33-1.13-2.48-2.6-2.62l-24.5-1.45c-2.45-.12-4.82.59-6.7,2l-12.1,9.08,13.84,13.5.12.12,17.52,2.04c.69.07,1.38.1,2.07.1,4.04,0,8-1.15,11.34-3.31l24.26-15.87c1.31-.72,1.97-2.28,1.68-4.02-.5-2.01-2.39-3.23-4.39-2.83Z"/><path class="cls-8" d="m114.38,86.3l-16.37,3.43-.03.38c-.21,2.95-2.31,5.42-5.21,6.15l-5.93,1.45c-2.62.63-5.43.89-8.37.77l-6.95-.22c-.56,0-1.09-.23-1.47-.64-.35-.39-.54-.89-.49-1.43,0-.56.23-1.09.64-1.47.39-.36.89-.54,1.4-.49l6.83.45c2.5.11,4.89-.11,7.3-.68l5.95-1.46c1.37-.41,2.28-1.67,2.15-2.94,0-1.33-1.13-2.48-2.6-2.62l-24.5-1.45c-2.45-.12-4.82.59-6.7,2l-12.1,9.08,13.84,13.5.12.12,17.52,2.04c.69.07,1.38.1,2.07.1,4.04,0,8-1.15,11.34-3.31l24.26-15.87c1.31-.72,1.97-2.28,1.68-4.02-.5-2.01-2.39-3.23-4.39-2.83Z"/><polygon class="cls-8" points="34.56 109.96 47.69 122.86 55.66 114.76 42.53 101.87 34.56 109.96"/><polygon class="cls-3" points="34.56 109.96 47.69 122.86 55.66 114.76 42.53 101.87 34.56 109.96"/><polygon class="cls-8" points="37.39 107.29 50.52 120.18 58.49 112.08 45.36 99.19 37.39 107.29"/><path class="cls-5" d="m120.03,90.85v-.02c-.97-4.18-4.98-6.72-9.14-5.78l-16.66,3.54-.19-.28c-1.15-1.68-3.01-2.7-5.09-2.8l-24.5-1.45c-.31-.02-.62-.03-.94-.03-3.09,0-6.02.99-8.34,2.83l-13.66,10.3-11.24,11.36c-.33.33-.53.87-.53,1.44,0,.42.1,1,.6,1.4l16.03,15.69c.33.33.87.53,1.44.53.42,0,1.01-.1,1.4-.59l10.16-10.28,17.24,1.93c5.66.66,11.34-.7,16-3.83l24.28-15.89c2.65-1.59,3.97-4.98,3.15-8.07Zm-5.52,4.89l-24.26,15.87c-3.34,2.17-7.31,3.31-11.34,3.31-.69,0-1.38-.03-2.07-.1l-17.52-2.04-.12-.12-13.84-13.5,12.1-9.08c1.88-1.41,4.25-2.12,6.7-2l24.5,1.45c1.46.15,2.6,1.3,2.6,2.62.13,1.27-.77,2.53-2.15,2.94l-5.95,1.46c-2.41.58-4.8.8-7.3.68l-6.83-.45c-.5-.04-1.01.14-1.4.49-.41.38-.64.91-.64,1.47-.04.54.14,1.04.49,1.43.38.41.91.64,1.47.64l6.95.22c2.94.12,5.75-.14,8.37-.77l5.93-1.45c2.91-.73,5-3.2,5.21-6.15l.03-.38,16.37-3.43c2-.4,3.89.82,4.39,2.83.29,1.73-.37,3.29-1.68,4.02Zm-66.81,27.12l-13.13-12.89,7.97-8.1,13.13,12.89-7.97,8.1Z"/><path class="cls-8" d="m113.96,50.56c0-13.29-10.81-24.1-24.1-24.1s-24.1,10.81-24.1,24.1,10.81,24.1,24.1,24.1,24.1-10.81,24.1-24.1Z"/><path class="cls-2" d="m113.96,50.56c0-13.29-10.81-24.1-24.1-24.1s-24.1,10.81-24.1,24.1,10.81,24.1,24.1,24.1,24.1-10.81,24.1-24.1Z"/><path class="cls-8" d="m116.97,47.6c0-13.29-10.81-24.1-24.1-24.1s-24.1,10.81-24.1,24.1,10.81,24.1,24.1,24.1,24.1-10.81,24.1-24.1Z"/><path class="cls-5" d="m89.86,22.42c-15.51,0-28.14,12.62-28.14,28.14s12.62,28.14,28.14,28.14,28.14-12.62,28.14-28.14-12.62-28.14-28.14-28.14Zm-24.1,28.14c0-13.29,10.81-24.1,24.1-24.1s24.1,10.81,24.1,24.1-10.81,24.1-24.1,24.1-24.1-10.81-24.1-24.1Z"/><path class="cls-4" d="m81.41,46.36c.41,3.52,3.68,6.28,7.45,6.28h2.24c.92,0,1.77.37,2.4,1.05.63.68.96,1.59.89,2.51-.13,1.64-1.62,2.92-3.41,2.92h-2.68c-1.19,0-2.1-.88-2.47-1.76-.09-.26-.17-.26-.21-.26h-3.58c-.14,0-.28.2-.28.39.3,2.88,2.61,5.23,5.61,5.66l.43.06v3.57c0,.17.11.28.28.28h3.58c.17,0,.28-.11.28-.28v-3.65l.4-.08c3.24-.65,5.68-3.13,6.09-6.18.25-2.16-.39-4.24-1.82-5.84-1.38-1.55-3.35-2.44-5.4-2.44h-2.46c-.92,0-1.77-.37-2.4-1.05-.63-.68-.96-1.59-.89-2.51.13-1.64,1.62-2.93,3.41-2.93h2.68c1.19,0,2.1.88,2.47,1.76.09.26.17.26.21.26h3.58c.14,0,.28-.2.28-.39-.3-2.88-2.61-5.23-5.61-5.66l-.43-.06v-3.57c0-.17-.11-.28-.28-.28h-3.58c-.17,0-.28.11-.28.28v3.67l-.42.07c-3.91.65-6.58,4.24-6.07,8.17Z"/></g></g></g></svg>