<?xml version="1.0" encoding="utf-8"?>
<!-- Generator: Adobe Illustrator 25.2.3, SVG Export Plug-In . SVG Version: 6.00 Build 0)  -->
<svg version="1.1" id="Layer_1" xmlns="http://www.w3.org/2000/svg" xmlns:xlink="http://www.w3.org/1999/xlink" x="0px" y="0px"
	 viewBox="0 0 150 150" style="enable-background:new 0 0 150 150;" xml:space="preserve">
<style type="text/css">
	.st0{fill:#B0B7F2;}
	.st1{opacity:0.3;}
	.st2{fill:#22364C;}
	.st3{fill:#FFFFFF;}
	.st4{opacity:0.2;fill:url(#SVGID_1_);enable-background:new    ;}
	.st5{fill:url(#SVGID_2_);}
</style>
<circle class="st0" cx="75" cy="75" r="75"/>
<g class="st1">
	<circle class="st2" cx="73.5" cy="76.6" r="30.5"/>
	<path class="st2" d="M123,76.6c0-19.9-11.9-37.8-30.2-45.6c-0.2-0.1-0.5-0.2-0.7-0.1c-0.1,0-0.1,0-0.2,0c-1,0.1-1.8,1-1.7,2
		c0.1,0.7,0.5,1.3,1.2,1.6c16.9,7.1,27.9,23.7,27.9,42.1c0,24.2-18.9,44.2-43,45.5l4.3-4.3c0.8-0.7,0.8-1.9,0-2.7
		c-0.4-0.4-0.9-0.6-1.4-0.6c-0.5,0-1,0.2-1.3,0.6l-7.6,7.6c-0.7,0.7-0.7,1.9,0,2.7l7.6,7.6c0.7,0.8,1.9,0.8,2.7,0.1s0.8-1.9,0.1-2.7
		l0,0v-0.1l-4.4-4.3C102.4,124.6,123,102.9,123,76.6z"/>
	<path class="st2" d="M55.8,118.8l-0.1-0.1c-5.4-2.3-10.4-5.6-14.5-9.8c-17.8-17.8-17.9-46.7,0-64.5c7.9-7.9,18.3-12.6,29.4-13.3
		l-4.1,4.1c-0.8,0.7-0.8,1.9-0.1,2.7c0.7,0.8,1.9,0.8,2.7,0.1h0.1l7.6-7.6c0.7-0.7,0.7-1.9,0-2.7l0,0L69.1,20
		c-0.4-0.4-0.9-0.6-1.4-0.6c-1.1,0-1.9,0.9-1.9,1.9c0,0.5,0.2,1,0.6,1.3l4.6,4.5C43.7,28.6,22.7,51.7,24,79
		c0.9,19,12.7,35.8,30.2,43.2c0.9,0.5,2.1,0.1,2.6-0.8c0.5-0.9,0.1-2.1-0.8-2.6C55.9,118.8,55.9,118.8,55.8,118.8L55.8,118.8z"/>
</g>
<path class="st3" d="M76.5,43.2c-16.8,0-30.4,13.7-30.4,30.5c0,16.8,13.7,30.4,30.5,30.4c16.8,0,30.4-13.7,30.4-30.4
	C107,56.8,93.3,43.1,76.5,43.2C76.5,43.1,76.5,43.1,76.5,43.2z"/>
<linearGradient id="SVGID_1_" gradientUnits="userSpaceOnUse" x1="48.11" y1="77.895" x2="105.2" y2="77.895" gradientTransform="matrix(1 0 0 -1 0 152)">
	<stop  offset="0" style="stop-color:#00F282"/>
	<stop  offset="1" style="stop-color:#00BA8F"/>
</linearGradient>
<path class="st4" d="M48.1,74.5c0,16.8,11.6,28.6,28.4,28.6s28.7-10.7,28.7-27.5c0-16.8-13.6-30.4-30.4-30.4
	C58,45.2,48.1,57.7,48.1,74.5z M101.4,75.6c0,14.7-11.9,26.7-26.6,26.7S48.1,90.4,48.1,75.7C48.1,61,60,49,74.7,49c0,0,0,0,0,0
	C89.4,49,101.4,60.9,101.4,75.6C101.4,75.6,101.4,75.6,101.4,75.6z"/>
<path class="st2" d="M46,73.6c0,16.8,13.6,30.5,30.4,30.5s30.5-13.6,30.5-30.4c0-16.8-13.6-30.5-30.4-30.5c0,0,0,0,0,0
	C59.7,43.2,46.1,56.8,46,73.6z M103.1,73.6c0,14.7-11.9,26.7-26.6,26.7S49.9,88.4,49.9,73.7C49.8,59,61.7,47,76.5,47c0,0,0,0,0,0
	C91.2,47,103.1,58.9,103.1,73.6C103.1,73.6,103.1,73.6,103.1,73.6z"/>
<path class="st2" d="M126,73.6c0-19.9-11.9-37.8-30.2-45.6c-0.2-0.1-0.5-0.2-0.7-0.1c-0.1,0-0.1,0-0.2,0c-1,0.1-1.8,1-1.7,2
	c0.1,0.7,0.5,1.3,1.2,1.6c16.9,7.1,27.9,23.7,27.9,42.1c0,24.2-18.9,44.2-43,45.5l4.3-4.3c0.8-0.7,0.8-1.9,0-2.7
	c-0.4-0.4-0.9-0.6-1.4-0.6c-0.5,0-1,0.2-1.3,0.6l-7.6,7.6c-0.7,0.7-0.7,1.9,0,2.7l7.6,7.6c0.7,0.8,1.9,0.8,2.7,0.1
	c0.8-0.7,0.8-1.9,0.1-2.7l0,0v-0.1l-4.4-4.3C105.4,121.6,126,99.9,126,73.6z"/>
<path class="st2" d="M58.8,115.8l-0.1-0.1c-5.4-2.3-10.4-5.6-14.5-9.8c-17.8-17.8-17.9-46.7,0-64.5c7.9-7.9,18.3-12.6,29.4-13.3
	l-4.1,4.1c-0.8,0.7-0.8,1.9-0.1,2.7c0.7,0.8,1.9,0.8,2.7,0.1h0.1l7.6-7.6c0.7-0.7,0.7-1.9,0-2.7l0,0L72.1,17
	c-0.4-0.4-0.9-0.6-1.4-0.6c-1.1,0-1.9,0.9-1.9,1.9c0,0.5,0.2,1,0.6,1.3l4.6,4.5C46.7,25.6,25.7,48.7,27,76
	c0.9,19,12.7,35.8,30.2,43.2c0.9,0.5,2.1,0.1,2.6-0.8c0.5-0.9,0.1-2.1-0.8-2.6C58.9,115.8,58.9,115.8,58.8,115.8L58.8,115.8z"/>
<linearGradient id="SVGID_2_" gradientUnits="userSpaceOnUse" x1="66.0771" y1="78.485" x2="86.9218" y2="78.485" gradientTransform="matrix(1 0 0 -1 0 152)">
	<stop  offset="0" style="stop-color:#00F282"/>
	<stop  offset="1" style="stop-color:#00BA8F"/>
</linearGradient>
<path class="st5" d="M75.2,54.5v4.4c-1.1,0.1-2.2,0.4-3.2,0.9c-0.9,0.4-1.8,1-2.5,1.7c-0.7,0.7-1.2,1.5-1.6,2.4c-0.4,1-0.5,2-0.5,3
	c0,1.1,0.2,2.2,0.7,3.1c0.4,0.9,1,1.7,1.8,2.4c0.9,0.7,1.8,1.3,2.9,1.8c1.2,0.5,2.5,1,3.8,1.3c0.9,0.3,1.8,0.7,2.7,1.1
	c0.7,0.3,1.3,0.7,1.8,1.2c0.4,0.4,0.8,0.9,1,1.4c0.2,0.5,0.3,1.1,0.3,1.7c0,0.7-0.1,1.4-0.4,2c-0.3,0.6-0.7,1.1-1.2,1.5
	c-0.5,0.4-1.2,0.8-1.8,0.9c-0.8,0.2-1.6,0.3-2.5,0.3c-0.7,0-1.3-0.1-2-0.3c-0.7-0.2-1.3-0.5-1.8-0.9c-0.6-0.5-1-1.1-1.3-1.8
	c-0.4-0.9-0.5-1.9-0.5-2.8h-4.7c0,1.3,0.2,2.7,0.7,3.9c0.4,1,1.1,1.9,1.9,2.7c0.8,0.7,1.8,1.3,2.8,1.6c1,0.4,2.1,0.6,3.2,0.7v3.8
	h3.7v-3.9c1.2-0.1,2.4-0.4,3.6-0.8c1-0.4,1.9-0.9,2.7-1.6c0.7-0.7,1.3-1.5,1.7-2.4c0.4-1,0.6-2,0.6-3.1c0-1.1-0.2-2.1-0.6-3.1
	c-0.4-0.9-1-1.7-1.7-2.4c-0.8-0.7-1.8-1.3-2.8-1.8c-1.2-0.6-2.5-1-3.8-1.4c-1-0.3-1.9-0.7-2.8-1.1c-0.7-0.3-1.3-0.7-1.8-1.2
	c-0.4-0.4-0.8-0.9-1-1.4c-0.2-0.6-0.3-1.1-0.3-1.7c0-0.6,0.1-1.3,0.3-1.9c0.2-0.5,0.5-1,0.9-1.5c0.4-0.4,1-0.8,1.6-1
	c0.7-0.2,1.5-0.3,2.2-0.3c0.7,0,1.5,0.1,2.2,0.5c0.6,0.3,1.2,0.7,1.6,1.3c0.5,0.6,0.8,1.3,1,2c0.2,0.8,0.3,1.6,0.3,2.4h4.6
	c0.1-2.3-0.6-4.6-2-6.4c-1.5-1.6-3.5-2.7-5.7-2.9v-4.4H75.2z"/>
</svg>
