<?xml version="1.0" encoding="utf-8"?>
<!-- Generator: Adobe Illustrator 25.2.3, SVG Export Plug-In . SVG Version: 6.00 Build 0)  -->
<svg version="1.1" id="Layer_1" xmlns="http://www.w3.org/2000/svg" xmlns:xlink="http://www.w3.org/1999/xlink" x="0px" y="0px"
	 viewBox="0 0 150 150" style="enable-background:new 0 0 150 150;" xml:space="preserve">
<style type="text/css">
	.st0{fill:#B0F2EA;}
	.st1{opacity:0.3;fill:#22364C;enable-background:new    ;}
	.st2{fill:#FFFFFF;}
	.st3{opacity:0.2;fill:url(#SVGID_1_);enable-background:new    ;}
	.st4{opacity:0.2;fill:url(#SVGID_2_);enable-background:new    ;}
	.st5{opacity:0.2;fill:url(#SVGID_3_);enable-background:new    ;}
	.st6{opacity:0.2;fill:url(#SVGID_4_);enable-background:new    ;}
	.st7{opacity:0.2;fill:url(#SVGID_5_);enable-background:new    ;}
	.st8{fill:#22364C;}
	.st9{fill:url(#SVGID_6_);}
</style>
<circle class="st0" cx="75" cy="75" r="75"/>
<path class="st1" d="M129.6,115.7V97.9c0-0.5-0.1-1-0.4-1.4l-2.9-4.4c-0.8-1.1-2.3-1.4-3.4-0.7c-0.3,0.2-0.5,0.4-0.7,0.7l-1.9,2.8
	l-1.9-2.8c-0.8-1.1-2.3-1.4-3.4-0.7c-0.3,0.2-0.5,0.4-0.7,0.7l-1.9,2.8l-1.9-2.8c-0.4-0.7-1.2-1.1-2-1.1c-0.8,0-1.6,0.4-2.1,1.1
	l-0.4,0.6V75l2.2,1.3c0.4,0.2,0.8,0.3,1.3,0.3c0.4,0,0.8-0.1,1.2-0.3c0.8-0.4,1.3-1.3,1.3-2.2v-7.5c0-0.9-0.5-1.7-1.2-2.1l-8.8-5.3
	c0.1-0.3,0.2-0.5,0.2-0.8V42h1.5c1.4,0,2.5-1.1,2.5-2.5v-5.9c0-1.4-1.1-2.5-2.5-2.5H81.8c-1.4,0-2.5,1.1-2.5,2.5v5.9
	c0,1.4,1.1,2.5,2.5,2.5h1.5v6.2l-11-6.6c-0.8-0.5-1.8-0.5-2.6,0l-38.4,23c-0.7,0.4-1.2,1.3-1.2,2.1v7.5c0,0.9,0.5,1.7,1.2,2.2
	c0.8,0.4,1.7,0.4,2.5,0l2.2-1.3v17.8l-0.4-0.6c-0.8-1.1-2.3-1.4-3.4-0.7c-0.3,0.2-0.5,0.4-0.7,0.7L29.7,95l-1.9-2.8
	c-0.8-1.1-2.3-1.4-3.4-0.7c-0.3,0.2-0.5,0.4-0.7,0.7L21.8,95l-1.9-2.8c-0.8-1.1-2.3-1.4-3.4-0.7c-0.3,0.2-0.5,0.4-0.7,0.7l-2.9,4.4
	c-0.3,0.4-0.4,0.9-0.4,1.4v17.7l1.1,2.7c0.4,0.3,0.9,0.4,1.3,0.4h5.9c0.3,0,0.7-0.1,1-0.2c0.3,0.1,0.7,0.2,1,0.2h5.9
	c0.3,0,0.7-0.1,1-0.2c0.3,0.2,0.7,0.2,1,0.2h5.9c0.3,0,0.7-0.1,1-0.2c0.3,0.1,0.7,0.2,1,0.2h64.9c0.3,0,0.7-0.1,1-0.2
	c0.3,0.2,0.7,0.2,1,0.2h5.9c0.3,0,0.7-0.1,1-0.2c0.3,0.1,0.7,0.2,1,0.2h5.9c0.3,0,0.7-0.1,1-0.2c0.3,0.1,0.7,0.2,1,0.2h5.9
	c0.5,0,0.9-0.1,1.3-0.4L129.6,115.7z"/>
<polygon class="st2" points="27.2,94.7 27.2,112.4 32.2,112.4 32.2,94.7 29.7,91 "/>
<rect x="43" y="107.5" class="st2" width="40.4" height="4.9"/>
<polygon class="st2" points="103.5,35.7 107,35.7 107,30.7 86.3,30.7 86.3,35.7 89.8,35.7 "/>
<polygon class="st2" points="35.1,94.7 35.1,112.4 40.1,112.4 40.1,106 40.1,94.7 37.6,91 "/>
<polygon class="st2" points="19.4,94.7 19.4,112.4 24.3,112.4 24.3,94.7 21.8,91 "/>
<polygon class="st2" points="90.2,46.5 103.1,54.2 103.1,38.6 90.2,38.6 90.2,46.5 "/>
<path class="st2" d="M112.9,63.5l-10.6-6.3h-0.1l-13.8-8.3l0,0L75,40.8L37.1,63.5V70l4.1-2.4c0,0,0,0,0.1-0.1l32.2-19.4l0.2-0.2
	c0.8-0.5,1.8-0.5,2.6,0l32.5,19.5l0,0l4.2,2.5V63.5z"/>
<polygon class="st2" points="117.8,94.7 117.8,112.4 122.8,112.4 122.8,94.7 120.3,91 "/>
<polygon class="st2" points="109.9,94.7 109.9,106 109.9,112.4 114.9,112.4 114.9,94.7 112.4,91 "/>
<polygon class="st2" points="86.3,106 86.3,112.4 99.1,112.4 99.1,106 99.1,83.9 86.3,83.9 "/>
<polygon class="st2" points="128.2,91 125.7,94.7 125.7,112.4 130.6,112.4 130.6,94.7 "/>
<rect x="102.1" y="107.5" class="st2" width="4.9" height="4.9"/>
<path class="st2" d="M43,69.8v34.7h40.4V83.4c0-1.4,1.1-2.5,2.5-2.5h13.8c1.4,0,2.5,1.1,2.5,2.5c0,0,0,0,0,0v21.2h4.9V69.8L75,50.7
	L43,69.8z"/>
<linearGradient id="SVGID_1_" gradientUnits="userSpaceOnUse" x1="43.01" y1="87.865" x2="108.02" y2="87.865" gradientTransform="matrix(1 0 0 -1 0 152)">
	<stop  offset="0" style="stop-color:#00F282"/>
	<stop  offset="1" style="stop-color:#00BA8F"/>
</linearGradient>
<polygon class="st3" points="43,69.8 75,50.7 107,69.8 108,77.6 75,58 43,75 "/>
<linearGradient id="SVGID_2_" gradientUnits="userSpaceOnUse" x1="90.25" y1="111.28" x2="103.06" y2="111.28" gradientTransform="matrix(1 0 0 -1 0 152)">
	<stop  offset="0" style="stop-color:#00F282"/>
	<stop  offset="1" style="stop-color:#00BA8F"/>
</linearGradient>
<rect x="90.2" y="38.6" class="st4" width="12.8" height="4.2"/>
<linearGradient id="SVGID_3_" gradientUnits="userSpaceOnUse" x1="47.44" y1="54.95" x2="80.1739" y2="54.95" gradientTransform="matrix(1 0 0 -1 0 152)">
	<stop  offset="0" style="stop-color:#00F282"/>
	<stop  offset="1" style="stop-color:#00BA8F"/>
</linearGradient>
<path class="st5" d="M47.4,95.7l2.8,2.7c0.4,0.4,1,0.6,1.6,0.6h26.1c1.2,0,2.3-1,2.3-2.3c0-0.6-0.2-1.2-0.7-1.6l0,0L47.4,95.7z"/>
<linearGradient id="SVGID_4_" gradientUnits="userSpaceOnUse" x1="43" y1="42.025" x2="83.37" y2="42.025" gradientTransform="matrix(1 0 0 -1 0 152)">
	<stop  offset="0" style="stop-color:#00F282"/>
	<stop  offset="1" style="stop-color:#00BA8F"/>
</linearGradient>
<rect x="43" y="107.5" class="st6" width="40.4" height="4.9"/>
<linearGradient id="SVGID_5_" gradientUnits="userSpaceOnUse" x1="102.07" y1="42.025" x2="107" y2="42.025" gradientTransform="matrix(1 0 0 -1 0 152)">
	<stop  offset="0" style="stop-color:#00F282"/>
	<stop  offset="1" style="stop-color:#00BA8F"/>
</linearGradient>
<rect x="102.1" y="107.5" class="st7" width="4.9" height="4.9"/>
<path class="st8" d="M133.6,112.2V94.5c0-0.5-0.1-1-0.4-1.4l-2.9-4.4c-0.8-1.1-2.3-1.4-3.4-0.7c-0.3,0.2-0.5,0.4-0.7,0.7l-1.9,2.8
	l-1.9-2.8c-0.8-1.1-2.3-1.4-3.4-0.7c-0.3,0.2-0.5,0.4-0.7,0.7l-1.9,2.8l-1.9-2.8c-0.4-0.7-1.2-1.1-2-1.1c-0.8,0-1.6,0.4-2.1,1.1
	l-0.4,0.6V71.6l2.2,1.3c0.4,0.2,0.8,0.3,1.3,0.3c0.4,0,0.8-0.1,1.2-0.3c0.8-0.4,1.3-1.3,1.3-2.2v-7.5c0-0.9-0.5-1.7-1.2-2.1
	l-8.8-5.3c0.1-0.3,0.2-0.5,0.2-0.8V38.6h1.5c1.4,0,2.5-1.1,2.5-2.4c0,0,0,0,0,0v-5.9c0-1.4-1.1-2.5-2.5-2.5H85.8
	c-1.4,0-2.5,1.1-2.5,2.5v5.9c0,1.4,1.1,2.5,2.5,2.5h1.5v6.2l-11-6.6c-0.8-0.5-1.8-0.5-2.6,0l-38.4,23c-0.7,0.5-1.2,1.3-1.2,2.1v7.5
	c0,1.4,1.1,2.5,2.4,2.5c0.5,0,0.9-0.1,1.3-0.4l2.2-1.3v17.7l-0.4-0.6c-0.8-1.1-2.3-1.4-3.4-0.7c-0.3,0.2-0.5,0.4-0.7,0.7l-1.9,2.8
	l-1.9-2.8c-0.8-1.1-2.3-1.4-3.4-0.7c-0.3,0.2-0.5,0.4-0.7,0.7l-1.9,2.8l-1.9-2.8c-0.8-1.1-2.3-1.4-3.4-0.7c-0.3,0.2-0.5,0.4-0.7,0.7
	l-2.9,4.4c-0.3,0.4-0.4,0.9-0.4,1.4v17.7c-6.4,2.1-10.2,4.5-16.4,7.3v2.7c6.2-2.8,11.1-5.2,17.6-7.2c0.4,0.3,0.9,0.4,1.3,0.4h5.9
	c0.3,0,0.7-0.1,1-0.2c0.3,0.1,0.7,0.2,1,0.2h5.9c0.3,0,0.7-0.1,1-0.2c0.3,0.2,0.7,0.2,1,0.2h5.9c0.3,0,0.7-0.1,1-0.2
	c0.3,0.1,0.7,0.2,1,0.2h64.9c0.3,0,0.7-0.1,1-0.2c0.3,0.2,0.7,0.2,1,0.2h5.9c0.3,0,0.7-0.1,1-0.2c0.3,0.1,0.7,0.2,1,0.2h5.9
	c0.3,0,0.7-0.1,1-0.2c0.3,0.1,0.7,0.2,1,0.2h5.9c0.5,0,0.9-0.1,1.3-0.4c6.4,2.1,11.4,4.5,17.6,7.2v-2.7
	C143.8,116.8,140,114.3,133.6,112.2z M24.3,112.4h-4.9V94.7l2.5-3.7l2.5,3.7L24.3,112.4z M32.2,112.4h-4.9V94.7l2.5-3.7l2.4,3.7
	L32.2,112.4z M40.1,106v6.4h-4.9V94.7l2.5-3.7l2.5,3.7V106z M86.3,35.7v-4.9H107v4.9C107,35.6,86.3,35.6,86.3,35.7z M103.1,38.7
	v15.5l-12.8-7.7l0,0v-7.9L103.1,38.7z M83.4,112.4H43v-4.9h40.4V112.4z M99.1,106v6.4H86.3V83.9h12.8V106z M107,112.4h-4.9v-4.9h4.9
	V112.4z M107,94.5v10h-4.9V83.4c0-1.4-1.1-2.5-2.5-2.5c0,0,0,0,0,0H85.8c-1.4,0-2.5,1.1-2.5,2.5v21.2H43V69.8l32-19.2l32,19.2V94.5z
	 M108.8,67.5L108.8,67.5L76.3,48c-0.8-0.5-1.8-0.5-2.6,0l-0.2,0.2L41.2,67.5c0,0-0.1,0-0.1,0.1L37.1,70v-6.5L75,40.8l13.5,8.1l0,0
	l13.8,8.2h0.1l10.6,6.3V70L108.8,67.5z M114.9,112.5H110V94.7l2.5-3.7l2.5,3.7L114.9,112.5z M122.7,112.5h-4.9V94.7l2.5-3.7l2.5,3.7
	V112.5z M130.6,112.5h-4.9V94.7l2.5-3.7l2.5,3.7L130.6,112.5z"/>
<path class="st8" d="M92.7,99.6h2c0.8-0.1,1.4-0.8,1.4-1.6c-0.1-0.7-0.6-1.3-1.4-1.4h-2c-0.8,0.1-1.4,0.8-1.4,1.6
	C91.4,99,92,99.6,92.7,99.6z"/>
<linearGradient id="SVGID_6_" gradientUnits="userSpaceOnUse" x1="45.94" y1="67.6" x2="80.39" y2="67.6" gradientTransform="matrix(1 0 0 -1 0 152)">
	<stop  offset="0" style="stop-color:#00F282"/>
	<stop  offset="1" style="stop-color:#00BA8F"/>
</linearGradient>
<path class="st9" d="M50.4,73.1c-1.4,0-2.5,1.1-2.5,2.5v17.2h-0.5c-0.8,0-1.5,0.7-1.5,1.5s0.7,1.5,1.5,1.5h31.5
	c0.8,0,1.5-0.7,1.5-1.5s-0.7-1.5-1.5-1.5h-0.5V75.5c0-1.4-1.1-2.5-2.4-2.5H50.4z M61.7,92.7H50.9v-6.9h10.8V92.7z M61.7,82.9H50.9
	V76h10.8V82.9z M64.7,76h10.8v6.9H64.7V76z M64.7,85.8h10.8v6.9H64.7V85.8z"/>
</svg>
