<?xml version="1.0" encoding="utf-8"?>
<!-- Generator: Adobe Illustrator 25.2.3, SVG Export Plug-In . SVG Version: 6.00 Build 0)  -->
<svg version="1.1" id="Layer_1" xmlns="http://www.w3.org/2000/svg" xmlns:xlink="http://www.w3.org/1999/xlink" x="0px" y="0px"
	 viewBox="0 0 150 150" style="enable-background:new 0 0 150 150;" xml:space="preserve">
<style type="text/css">
	.st0{fill:#B9F2B0;}
	.st1{opacity:0.3;fill:#22364C;enable-background:new    ;}
	.st2{fill:#FFFFFF;}
	.st3{fill:#A6D7E8;}
	.st4{fill:#CCF5E8;}
	.st5{fill:#22364C;}
	.st6{fill:url(#SVGID_1_);}
	.st7{fill:#CCF7E7;}
</style>
<circle class="st0" cx="75" cy="75" r="75"/>
<path class="st1" d="M96.3,65.2l6.1-9.7c0.9-1.8,1.4-3.9,1.4-5.9v-25c0-3.1-2.5-5.5-5.5-5.5H48.7c-3.1,0-5.5,2.5-5.5,5.5v25
	c0,2.1,0.5,4.1,1.4,5.9l0.1,0.2l7.2,8.6c-17.2,12-21.5,35.7-9.5,52.9s35.7,21.5,52.9,9.5s21.5-35.7,9.5-52.9
	C102.4,70.6,99.6,67.6,96.3,65.2z"/>
<path class="st2" d="M103.5,21.6v25c0,1.5-0.3,3-1,4.4l-6,9.2c-11.8-7.3-26.6-7.6-38.6-0.8l-7.3-8.6c-0.6-1.3-1-2.8-1-4.3v-25
	c0-1.2,0.9-2.1,2.1-2.1c0,0,0,0,0,0h49.7C102.5,19.5,103.4,20.4,103.5,21.6C103.5,21.6,103.5,21.6,103.5,21.6z M87.7,48.5V27.4
	c0-0.5-0.2-0.9-0.5-1.2c-0.3-0.3-0.7-0.5-1.2-0.5v-0.2v0.2c-0.9,0-1.7,0.8-1.7,1.7v21.1c0,0.5,0.2,0.9,0.5,1.2
	c0.3,0.3,0.7,0.5,1.2,0.5l0,0c0.4,0,0.9-0.2,1.2-0.5C87.6,49.4,87.7,49,87.7,48.5z M68.6,48.5V27.4c0-0.5-0.2-0.9-0.5-1.2
	c-0.3-0.3-0.7-0.5-1.2-0.5v-0.2v0.2c-0.9,0-1.7,0.8-1.7,1.7v21.1c0,0.5,0.2,0.9,0.5,1.2c0.3,0.3,0.7,0.5,1.2,0.5
	C67.9,50.2,68.7,49.5,68.6,48.5L68.6,48.5z"/>
<path class="st3" d="M76.5,67.5c13.9-0.1,25.3,11.1,25.4,25c0.1,13.9-11.1,25.3-25,25.4s-25.3-11.1-25.4-25c0-0.1,0-0.1,0-0.2
	C51.5,78.9,62.7,67.6,76.5,67.5z M83.9,95.6L95,86.9H80.7l-4.2-13.4l-4.2,13.4H58l11.2,8.8v0.2l-4,12.7l11.3-7.3l0.1,0.1l11.2,7.2
	l-4-12.8L83.9,95.6z"/>
<polygon class="st2" points="85.2,90.3 79.8,94.5 81.8,100.6 76.5,97.2 71.2,100.6 73.2,94.5 67.8,90.3 74.8,90.3 76.5,84.8 
	78.2,90.3 "/>
<path class="st2" d="M76.5,57.9c19.2-0.1,34.9,15.4,35,34.6s-15.4,34.9-34.6,35s-34.9-15.4-35-34.6c0-0.1,0-0.1,0-0.2
	C41.9,73.6,57.4,58,76.5,57.9z M104.9,92.7C104.9,77,92.1,64.3,76.4,64.4C60.6,64.5,48,77.3,48.1,93c0.1,15.6,12.8,28.3,28.4,28.3
	C92.2,121.2,105,108.4,104.9,92.7z"/>
<path class="st4" d="M76.2,66.9c19.4,0,26.9,14.7,26.9,28.6s-13,25.2-26.9,25.2s-26-11.3-26-25.2S58,66.9,76.2,66.9z"/>
<path class="st2" d="M72.5,70.6c19.4,0,26.9,14.7,26.9,28.6s-13.1,25.2-26.9,25.2s-26-11.3-26-25.2S54.3,70.6,72.5,70.6z"/>
<path class="st5" d="M99.3,62.2c16.8,12.6,20.2,36.4,7.6,53.2s-36.4,20.2-53.2,7.6s-20.2-36.4-7.6-53.2c2.4-3.2,5.4-6.1,8.7-8.4
	l-7.2-8.6l-0.1-0.2c-0.9-1.8-1.4-3.9-1.4-5.9v-25c0-3.1,2.5-5.5,5.5-5.5h49.7c3.1,0,5.5,2.5,5.5,5.5v25c0,2.1-0.5,4.1-1.4,5.9
	L99.3,62.2z M103.5,46.6v-25c0-1.2-0.9-2.1-2.1-2.1c0,0,0,0-0.1,0H51.7c-1.2,0-2.1,0.9-2.1,2.1c0,0,0,0,0,0v25c0,1.5,0.4,2.9,1,4.3
	l7.3,8.6c12-6.9,26.9-6.6,38.6,0.8l6-9.2C103.1,49.6,103.5,48.1,103.5,46.6z M111.1,92.7C111,73.6,95.4,58.2,76.3,58.3
	C57.2,58.4,41.8,74,41.9,93.1c0.1,19,15.6,34.4,34.6,34.4C95.7,127.4,111.1,111.9,111.1,92.7z"/>
<linearGradient id="SVGID_1_" gradientUnits="userSpaceOnUse" x1="58" y1="61.03" x2="94.96" y2="61.03" gradientTransform="matrix(1 0 0 -1 0 152)">
	<stop  offset="0" style="stop-color:#00F282"/>
	<stop  offset="1" style="stop-color:#00BA8F"/>
</linearGradient>
<path class="st6" d="M95,86.9l-11.1,8.7l-0.1,0.1l4,12.8l-11.2-7.2l-0.1-0.1l-11.3,7.3l4-12.7v-0.2L58,86.9h14.3l4.2-13.4l4.2,13.4
	L95,86.9z M79.8,94.5l5.3-4.2h-7l-1.7-5.5l-1.7,5.5h-7l5.3,4.2l-1.9,6.1l5.3-3.4l5.3,3.4L79.8,94.5z"/>
<path class="st7" d="M82.5,28.3c0-0.9,0.7-1.7,1.7-1.7v-0.2v0.2c0.9,0,1.7,0.8,1.7,1.7c0,0,0,0,0,0v21.1c0,0.5-0.2,0.9-0.5,1.2
	c-0.3,0.3-0.7,0.5-1.2,0.5l0,0c-0.5,0-0.9-0.2-1.2-0.5c-0.3-0.3-0.5-0.8-0.5-1.2L82.5,28.3z"/>
<path class="st7" d="M63.4,28.3c0-0.9,0.7-1.7,1.7-1.7v-0.2v0.2c0.9,0,1.7,0.8,1.7,1.7c0,0,0,0,0,0v21.1c0,0.4-0.2,0.9-0.5,1.2
	c-0.3,0.3-0.8,0.5-1.2,0.5c-0.5,0-0.9-0.2-1.2-0.5c-0.3-0.3-0.5-0.8-0.5-1.2L63.4,28.3z"/>
<path class="st5" d="M84.4,27.4c0-0.9,0.7-1.7,1.6-1.7v-0.2v0.2c0.5,0,0.9,0.2,1.2,0.5c0.3,0.3,0.5,0.8,0.5,1.2v21.1
	c0,0.4-0.2,0.9-0.5,1.2c-0.3,0.3-0.7,0.5-1.2,0.5l0,0c-0.5,0-0.9-0.2-1.2-0.5c-0.3-0.3-0.5-0.8-0.5-1.2L84.4,27.4z"/>
<path class="st5" d="M65.2,27.4c0-0.9,0.7-1.7,1.7-1.7v-0.2v0.2c0.5,0,0.9,0.2,1.2,0.5c0.3,0.3,0.5,0.8,0.5,1.2v21.1
	c0,0.9-0.8,1.7-1.7,1.7c-0.5,0-0.9-0.2-1.2-0.5c-0.3-0.3-0.5-0.8-0.5-1.2L65.2,27.4z"/>
<path class="st5" d="M76.5,64.1c15.8-0.1,28.7,12.7,28.7,28.4c0.1,15.8-12.7,28.7-28.4,28.7s-28.7-12.7-28.7-28.4c0-0.1,0-0.1,0-0.2
	C48,77,60.8,64.2,76.5,64.1z M101.5,92.7c-0.1-13.8-11.4-25-25.2-24.9S51.3,79.1,51.4,93c0.1,13.8,11.3,24.9,25.1,24.9
	C90.4,117.8,101.6,106.6,101.5,92.7L101.5,92.7z"/>
</svg>
