<?xml version="1.0" encoding="UTF-8"?>
<svg width="59px" height="60px" viewBox="0 0 59 60" version="1.1" xmlns="http://www.w3.org/2000/svg" xmlns:xlink="http://www.w3.org/1999/xlink">
    <!-- Generator: Sketch 51.3 (57544) - http://www.bohemiancoding.com/sketch -->
    <title>Group 3</title>
    <desc>Created with Sketch.</desc>
    <defs>
        <polygon id="path-1" points="0 0 58.88985 0 58.88985 59.735925 0 59.735925"></polygon>
    </defs>
    <g id="About-Us" stroke="none" stroke-width="1" fill="none" fill-rule="evenodd">
        <g id="About-Us---Lg---1" transform="translate(-721.000000, -850.000000)">
            <g id="Headline-1" transform="translate(376.000000, 850.000000)">
                <g id="Group-3" transform="translate(345.000000, 0.000000)">
                    <mask id="mask-2" fill="white">
                        <use xlink:href="#path-1"></use>
                    </mask>
                    <g id="Clip-2"></g>
                    <path d="M3.7521,27.185175 C3.7521,25.006425 5.52435,23.233425 7.70385,23.233425 L13.94235,23.233425 L13.94235,31.136925 L7.70385,31.136925 C5.52435,31.136175 3.7521,29.363925 3.7521,27.185175 Z M17.69235,34.886175 L23.78085,34.886175 C25.9596,34.886175 27.7326,36.659175 27.7326,38.837925 L27.7326,42.611175 L21.6441,42.609675 C19.46535,42.609675 17.69235,40.836675 17.69235,38.657925 L17.69235,34.886175 Z M17.69235,23.233425 L43.86735,23.233425 L43.8606,29.038425 L43.01685,27.236925 C42.53235,26.203425 41.30085,25.757925 40.2681,26.241675 C39.23385,26.726175 38.78835,27.956925 39.27285,28.990425 L43.9221,38.917425 C44.2626,39.644175 44.99235,40.107675 45.7941,40.107675 L45.7986,40.107675 C46.6026,40.106175 47.33235,39.638175 47.66985,38.908425 L52.1841,29.156175 C52.6641,28.120425 52.2126,26.891175 51.17685,26.411925 C50.1396,25.931925 48.9111,26.383425 48.4326,27.419175 L47.6106,29.195175 L47.61735,23.231925 L51.18885,23.231925 C53.3676,23.231925 55.1406,25.004925 55.1406,27.183675 L55.1406,38.663175 C55.1406,39.719175 54.7296,40.711425 53.98335,41.457675 C53.2371,42.203925 52.24485,42.614175 51.18885,42.614175 L51.1881,42.614175 L31.4826,42.610425 L31.4826,38.836425 C31.4826,34.589175 28.0281,31.134675 23.78085,31.134675 L17.69235,31.134675 L17.69235,23.233425 Z M21.6441,17.879175 L23.78085,17.879175 C28.02735,17.879175 31.4826,14.424675 31.4826,10.177425 L31.4826,7.701675 C31.4826,5.522925 33.2556,3.749925 35.4351,3.749925 L39.93435,3.749925 C40.99035,3.749925 41.98335,4.161675 42.73035,4.908675 C43.47735,5.655675 43.8876,6.649425 43.8861,7.705425 L43.8726,19.482675 L18.4671,19.482675 C19.18785,18.510675 20.3436,17.879175 21.6441,17.879175 Z M13.94235,34.886175 L13.94235,38.657925 C13.94235,42.903675 17.3961,46.358175 21.6426,46.359675 L27.7326,46.361175 L27.7326,52.034175 C27.7326,56.281425 31.1871,59.735925 35.4351,59.735925 L55.5306,59.735925 C56.56635,59.735925 57.4056,58.896675 57.4056,57.860925 C57.4056,56.825175 56.56635,55.985925 55.5306,55.985925 L35.43435,55.985925 C33.2556,55.985925 31.48185,54.212925 31.48185,52.034175 L31.48185,46.361925 L51.18585,46.365675 L51.1881,46.365675 C53.2446,46.365675 55.17885,45.564675 56.63385,44.110425 C58.0881,42.656175 58.88985,40.721175 58.88985,38.663925 L58.88985,27.185175 C58.88985,22.937925 55.43535,19.483425 51.1881,19.483425 L47.6211,19.483425 L47.6346,7.710675 C47.63685,5.651925 46.83735,3.715425 45.3816,2.258925 C43.92735,0.802425 41.9916,-7.5e-05 39.93285,-7.5e-05 L35.4336,-7.5e-05 C31.18635,-7.5e-05 27.7311,3.454425 27.7311,7.701675 L27.7311,10.177425 C27.7311,12.356175 25.95885,14.129175 23.77935,14.129175 L21.6426,14.129175 C18.21435,14.129175 15.30135,16.381425 14.3061,19.483425 L7.7016,19.483425 C3.4551,19.483425 -0.00015,22.937925 -0.00015,27.185175 C-0.00015,31.431675 3.45435,34.886925 7.7016,34.886925 L13.94235,34.886925 L13.94235,34.886175 Z" id="Fill-1" fill="#83E5B4" mask="url(#mask-2)"></path>
                </g>
            </g>
        </g>
    </g>
</svg>