<?xml version="1.0" encoding="UTF-8"?>
<svg width="62px" height="60px" viewBox="0 0 62 60" version="1.1" xmlns="http://www.w3.org/2000/svg" xmlns:xlink="http://www.w3.org/1999/xlink">
    <!-- Generator: Sketch 51.3 (57544) - http://www.bohemiancoding.com/sketch -->
    <title>Group 7</title>
    <desc>Created with Sketch.</desc>
    <defs></defs>
    <g id="About-Us" stroke="none" stroke-width="1" fill="none" fill-rule="evenodd">
        <g id="About-Us---Lg---1" transform="translate(-720.000000, -280.000000)" fill="#83E5B4">
            <g id="Headline" transform="translate(0.000000, 150.000000)">
                <g id="Group-8" transform="translate(230.000000, 130.000000)">
                    <g id="Group-7" transform="translate(521.000000, 30.000000) scale(-1, 1) translate(-521.000000, -30.000000) translate(490.000000, 0.000000)">
                        <path d="M5.54965909,55.8890455 C10.90125,46.5713182 16.2480682,37.2501818 21.5935227,27.9290455 L22.8576136,25.7254091 L30.7305682,39.4415455 C31.0551136,40.0033636 31.66875,40.3660909 32.3710227,40.4131364 C33.0821591,40.4608636 33.7278409,40.1792727 34.1246591,39.6631364 L38.4855682,33.9167727 C44.0580682,41.2381364 49.6244318,48.5635909 55.1907955,55.8890455 L5.54965909,55.8890455 Z M9.93647727,7.01904545 L20.8107955,7.01904545 L20.8107955,4.11177273 L9.93647727,4.11177273 L9.93647727,7.01904545 Z M60.9446591,56.6942727 C54.3753409,48.0624545 47.8189773,39.4204091 41.2626136,30.7790455 L40.1171591,29.2681364 C39.7510227,28.782 39.1407955,28.4922273 38.4848864,28.4922273 C37.8289773,28.4922273 37.2194318,28.782 36.8539773,29.2660909 L32.7221591,34.7131364 L24.9030682,21.0835909 L24.9030682,2.05677273 C24.9030682,0.962454545 23.9471591,0.00177272727 22.8569318,0.00109090909 L7.92238636,0.00177272727 C7.85897727,-0.000272727273 7.79420455,-0.000954545455 7.73011364,0.00177272727 L7.69738636,0.00381818182 C6.67056818,0.102 5.83875,1.02381818 5.84352273,2.05677273 L5.84352273,9.07472727 C5.84352273,10.1697273 6.79943182,11.1304091 7.88965909,11.1304091 L20.8107955,11.1304091 L20.8107955,21.0406364 C14.4964773,32.0622273 8.17670455,43.0824545 1.85761364,54.1013182 L0.241704545,56.9185909 C-0.0992045455,57.5131364 -0.0780681818,58.2876818 0.296931818,58.9408636 C0.669886364,59.5892727 1.32238636,59.9949545 2.00556818,59.9997273 L59.3151136,59.9997273 C60.07875,59.9997273 60.8185227,59.5395 61.1553409,58.8542727 C61.4921591,58.1690455 61.4076136,57.3010909 60.9446591,56.6942727 Z" id="Fill-1"></path>
                        <path d="M37.2970909,28.328 C36.9923182,28.6143636 36.8170909,29.0016364 36.8034545,29.4209545 C36.7932273,29.7891364 36.9125455,30.1505 37.1368636,30.4348182 L41.2420909,35.7959545 C41.5489091,36.2091364 42.0227727,36.4273182 42.5014091,36.4273182 C42.8259545,36.4273182 43.1532273,36.3264091 43.4327727,36.1191364 C44.1261818,35.6043636 44.2714091,34.6211818 43.7314091,33.8950455 L39.6255,28.5352727 C39.3391364,28.1493636 38.8993636,27.9189091 38.418,27.9039091 C38.0136818,27.8868636 37.6018636,28.0409545 37.2970909,28.328" id="Fill-3"></path>
                        <path d="M43.0745455,37.5825227 C43.0622727,37.9500227 43.1815909,38.3113864 43.4065909,38.5970682 L47.6229545,44.1034318 C47.8711364,44.44025 48.2352273,44.6597955 48.6497727,44.7218409 C48.7281818,44.7334318 48.8065909,44.7395682 48.885,44.7395682 C49.2177273,44.7395682 49.5395455,44.6338864 49.8122727,44.43275 C50.1484091,44.1838864 50.3679545,43.8191136 50.43,43.40525 C50.4920455,42.9920682 50.3897727,42.5788864 50.1129545,42.20525 L45.8965909,36.6975227 C45.6095455,36.3129773 45.1690909,36.0825227 44.6890909,36.0668409 C44.2731818,36.0566136 43.8729545,36.2045682 43.5681818,36.49025 C43.2627273,36.7766136 43.0881818,37.16525 43.0745455,37.5825227" id="Fill-5"></path>
                    </g>
                </g>
            </g>
        </g>
    </g>
</svg>