<?xml version="1.0" encoding="UTF-8"?>
<svg width="73px" height="60px" viewBox="0 0 73 60" version="1.1" xmlns="http://www.w3.org/2000/svg" xmlns:xlink="http://www.w3.org/1999/xlink">
    <!-- Generator: Sketch 51.3 (57544) - http://www.bohemiancoding.com/sketch -->
    <title>Group 3</title>
    <desc>Created with Sketch.</desc>
    <defs>
        <polygon id="path-1" points="8.10810811e-05 0.000324324324 72.2254054 0.000324324324 72.2254054 59.5547838 8.10810811e-05 59.5547838"></polygon>
    </defs>
    <g id="About-Us" stroke="none" stroke-width="1" fill="none" fill-rule="evenodd">
        <g id="About-Us---Lg---1" transform="translate(-715.000000, -1350.000000)">
            <g id="Headline-2" transform="translate(376.000000, 1350.000000)">
                <g id="Group-3" transform="translate(339.000000, 0.000000)">
                    <mask id="mask-2" fill="white">
                        <use xlink:href="#path-1"></use>
                    </mask>
                    <g id="Clip-2"></g>
                    <path d="M50.3254865,35.2884324 L41.439,35.2884324 L45.2546757,28.1143784 L47.2938649,24.2816757 L53.2565676,13.0746486 L65.0741351,35.2884324 L54.7857568,35.2884324 L50.3254865,35.2884324 Z M51.1087297,40.0697838 C51.1087297,48.4446486 44.2946757,55.2587027 35.919,55.2587027 C27.6738649,55.2587027 20.9546757,48.6497838 20.7495405,40.4524865 C20.7471081,40.3243784 20.7300811,40.1995135 20.7300811,40.0697838 C20.7300811,38.7141081 20.9254865,37.4087027 21.2595405,36.1568108 C22.9922432,29.6751892 28.899,24.8800541 35.919,24.8800541 C36.0000811,24.8800541 36.0771081,24.8914054 36.1565676,24.893027 C37.6500811,24.9149189 39.0933243,25.146 40.4530541,25.5724865 C40.8203514,25.6868108 41.1771081,25.8254595 41.5322432,25.9681622 L40.4530541,27.996 L36.1565676,36.0700541 L36.1103514,36.1568108 L34.2868378,39.5841081 L40.4530541,39.5841081 L51.0835946,39.5841081 C51.0884595,39.7462703 51.1087297,39.906 51.1087297,40.0697838 Z M4.29575676,4.296 L36.1565676,4.296 L36.1565676,20.5965405 C36.0771081,20.5957297 36.0000811,20.5843784 35.919,20.5843784 C26.5152162,20.5843784 18.6462973,27.2808649 16.8284595,36.1568108 L4.29575676,36.1568108 L4.29575676,4.296 Z M72.2254865,39.5841081 L53.2565676,3.92951351 L43.5625135,22.1508649 C42.5668378,21.7243784 41.5241351,21.3951892 40.4530541,21.1381622 L40.4530541,0.000324324324 L8.10810811e-05,0.000324324324 L8.10810811e-05,40.4524865 L16.4538649,40.4524865 C16.6598108,51.018973 25.3054865,59.5551892 35.919,59.5551892 C46.6630541,59.5551892 55.4044054,50.813027 55.4044054,40.0697838 C55.4044054,39.906 55.3833243,39.7462703 55.3792703,39.5841081 L72.2254865,39.5841081 Z" id="Fill-1" fill="#83E5B4" mask="url(#mask-2)"></path>
                </g>
            </g>
        </g>
    </g>
</svg>