<?xml version="1.0" encoding="utf-8"?>
<!-- Generator: Adobe Illustrator 25.2.3, SVG Export Plug-In . SVG Version: 6.00 Build 0)  -->
<svg version="1.1" id="Layer_1" xmlns="http://www.w3.org/2000/svg" xmlns:xlink="http://www.w3.org/1999/xlink" x="0px" y="0px"
	 viewBox="0 0 150 150" style="enable-background:new 0 0 150 150;" xml:space="preserve">
<style type="text/css">
	.st0{fill:#F2DEB0;}
	.st1{opacity:0.3;}
	.st2{fill:#22364C;}
	.st3{fill:#FFFFFF;}
	.st4{opacity:0.2;fill:url(#SVGID_1_);enable-background:new    ;}
	.st5{opacity:0.2;fill:url(#SVGID_2_);enable-background:new    ;}
	.st6{opacity:0.2;fill:url(#SVGID_3_);enable-background:new    ;}
	.st7{fill:url(#SVGID_4_);}
	.st8{fill:url(#SVGID_5_);}
</style>
<circle class="st0" cx="75" cy="75" r="75"/>
<g class="st1">
	<path class="st2" d="M66.9,77.3H38.6c-3.1,0-5.7,2.6-5.7,5.7c0,0,0,0,0,0v28.2c0,3.1,2.5,5.7,5.7,5.7h28.3c3.1,0,5.7-2.5,5.7-5.7
		c0,0,0,0,0,0V83C72.6,79.9,70,77.3,66.9,77.3C66.9,77.3,66.9,77.3,66.9,77.3z"/>
	<path class="st2" d="M66.9,34.9H38.6c-3.1,0-5.7,2.6-5.7,5.7v28.2c0,3.1,2.5,5.7,5.7,5.7h28.3c3.1,0,5.7-2.5,5.7-5.7c0,0,0,0,0,0
		V40.6C72.6,37.5,70,34.9,66.9,34.9z"/>
	<path class="st2" d="M109.6,34.9H81.3c-3.1,0-5.7,2.6-5.7,5.7v70.6c0,3.1,2.5,5.7,5.7,5.7c0,0,0,0,0,0h28.2c3.1,0,5.7-2.5,5.7-5.7
		c0,0,0,0,0,0V40.6C115.3,37.5,112.7,34.9,109.6,34.9C109.6,34.9,109.6,34.9,109.6,34.9z"/>
</g>
<path class="st3" d="M71.5,80.8V109c0,1.3-1.1,2.4-2.4,2.4c0,0,0,0,0,0H40.8c-1.3,0-2.4-1.1-2.4-2.4V80.8c0-1.3,1.1-2.4,2.4-2.4
	h28.2C70.4,78.4,71.5,79.4,71.5,80.8z M60.8,96.5c0.9-0.1,1.6-0.9,1.5-1.8c-0.1-0.8-0.7-1.5-1.5-1.5H49.2c-0.9-0.1-1.7,0.6-1.8,1.5
	c-0.1,0.9,0.6,1.7,1.5,1.8c0.1,0,0.2,0,0.3,0H60.8z"/>
<path class="st3" d="M114.2,38.4V109c0,1.3-1.1,2.4-2.4,2.4H83.6c-1.3,0-2.4-1.1-2.4-2.4V38.4c0-1.3,1.1-2.4,2.4-2.4h28.2
	C113.1,36,114.2,37.1,114.2,38.4z M105.2,69.7c0-0.9-0.7-1.7-1.6-1.7c0,0,0,0-0.1,0H91.9c-0.9-0.1-1.7,0.6-1.8,1.5s0.6,1.7,1.5,1.8
	c0.1,0,0.2,0,0.3,0h11.6C104.4,71.3,105.1,70.6,105.2,69.7C105.1,69.7,105.1,69.7,105.2,69.7L105.2,69.7z M105.2,77.7
	c0-0.9-0.7-1.7-1.7-1.7l0,0H91.9c-0.9-0.1-1.7,0.6-1.8,1.5s0.6,1.7,1.5,1.8c0.1,0,0.2,0,0.3,0h11.6
	C104.4,79.4,105.1,78.6,105.2,77.7C105.1,77.7,105.1,77.7,105.2,77.7L105.2,77.7z"/>
<path class="st3" d="M71.5,38.4v28.2c0,1.3-1.1,2.4-2.4,2.4H40.8c-1.3,0-2.4-1.1-2.4-2.4V38.4c0-1.3,1.1-2.4,2.4-2.4h28.2
	C70.4,36,71.5,37.1,71.5,38.4C71.5,38.4,71.5,38.4,71.5,38.4z M62.5,52.5c0-0.9-0.7-1.7-1.6-1.7c0,0,0,0,0,0h-4.2v-4.1
	c0.1-0.9-0.6-1.7-1.5-1.8s-1.7,0.6-1.8,1.5c0,0.1,0,0.2,0,0.3v4.1h-4.1c-0.9,0-1.7,0.7-1.7,1.7c0,0.9,0.7,1.7,1.7,1.7h4.2v4.1
	c-0.1,0.9,0.6,1.7,1.5,1.8s1.7-0.6,1.8-1.5c0-0.1,0-0.2,0-0.3v-4.1h4.2C61.7,54.2,62.4,53.4,62.5,52.5
	C62.4,52.5,62.4,52.5,62.5,52.5L62.5,52.5z"/>
<linearGradient id="SVGID_1_" gradientUnits="userSpaceOnUse" x1="81.16" y1="78.21" x2="114.17" y2="78.21" gradientTransform="matrix(1 0 0 -1 0 152)">
	<stop  offset="0" style="stop-color:#00F282"/>
	<stop  offset="1" style="stop-color:#00BA8F"/>
</linearGradient>
<path class="st4" d="M114.2,103.9c0-0.9-0.8-1.7-1.7-1.7h-0.2c-0.7,0-1.4,0.5-1.6,1.2L81.2,36.2v75.2h33l-0.3-0.7
	c0.2-0.3,0.3-0.6,0.3-1L114.2,103.9z"/>
<path class="st3" d="M85.2,37.6h24.7c1.4,0,2.5,1.1,2.5,2.5v67.4c0,1.4-1.1,2.5-2.5,2.5H85.2c-1.4,0-2.5-1.1-2.5-2.5V40.1
	C82.8,38.7,83.9,37.6,85.2,37.6z"/>
<linearGradient id="SVGID_2_" gradientUnits="userSpaceOnUse" x1="38.45" y1="99.23" x2="71.46" y2="99.23" gradientTransform="matrix(1 0 0 -1 0 152)">
	<stop  offset="0" style="stop-color:#00F282"/>
	<stop  offset="1" style="stop-color:#00BA8F"/>
</linearGradient>
<path class="st5" d="M71.5,67.2v-4.6c0-1-0.8-1.8-1.8-1.8h-1c-1,0-1.8,0.8-1.8,1.8l0,0v2.3L38.5,36v33.5h33l-0.8-0.8
	C71.2,68.4,71.5,67.8,71.5,67.2z"/>
<path class="st3" d="M43.3,37.9h23c1.6,0,2.9,1.3,2.9,2.9v23c0,1.6-1.3,2.9-2.9,2.9h-23c-1.6,0-2.9-1.3-2.9-2.9v-23
	C40.4,39.2,41.7,37.9,43.3,37.9z"/>
<linearGradient id="SVGID_3_" gradientUnits="userSpaceOnUse" x1="38.45" y1="57.13" x2="71.46" y2="57.13" gradientTransform="matrix(1 0 0 -1 0 152)">
	<stop  offset="0" style="stop-color:#00F282"/>
	<stop  offset="1" style="stop-color:#00BA8F"/>
</linearGradient>
<path class="st6" d="M71.5,109.3v-4.6c0-1-0.8-1.8-1.8-1.8h-1c-1,0-1.8,0.8-1.8,1.8v2.3l-28.4-29v33.5h33l-0.8-0.8
	C71.2,110.5,71.5,109.9,71.5,109.3z"/>
<path class="st3" d="M43.3,80.9h23c1.6,0,2.9,1.3,2.9,2.9v23c0,1.6-1.3,2.9-2.9,2.9h-23c-1.6,0-2.9-1.3-2.9-2.9v-23
	C40.4,82.2,41.7,80.9,43.3,80.9z"/>
<path class="st2" d="M69.1,75.5H40.8c-2.9,0-5.3,2.4-5.3,5.3V109c0,2.9,2.4,5.3,5.3,5.3h28.2c2.9,0,5.3-2.4,5.3-5.3V80.8
	C74.4,77.8,72,75.5,69.1,75.5z M71.9,109c0,1.5-1.3,2.8-2.8,2.8H40.8c-1.5,0-2.8-1.2-2.8-2.8c0,0,0,0,0,0V80.8
	c0-1.5,1.3-2.8,2.8-2.8h28.2c1.5,0,2.8,1.2,2.8,2.8L71.9,109z"/>
<path class="st2" d="M69.1,33.1H40.8c-2.9,0-5.3,2.4-5.3,5.3v28.2c0,2.9,2.4,5.3,5.3,5.3h28.2c2.9,0,5.3-2.4,5.3-5.3V38.4
	C74.4,35.5,72,33.1,69.1,33.1z M71.9,66.6c0,1.5-1.3,2.8-2.8,2.8H40.8c-1.5,0-2.8-1.2-2.8-2.8c0,0,0,0,0,0V38.4
	c0-1.5,1.3-2.8,2.8-2.8h28.3c1.5,0,2.8,1.2,2.8,2.8V66.6z"/>
<path class="st2" d="M111.8,33.1H83.6c-2.9,0-5.3,2.4-5.3,5.3V109c0,2.9,2.4,5.3,5.3,5.3c0,0,0,0,0,0h28.2c2.9,0,5.3-2.4,5.3-5.3
	V38.4C117.1,35.5,114.7,33.1,111.8,33.1z M114.6,109c0,1.5-1.3,2.8-2.8,2.8H83.6c-1.5,0-2.8-1.2-2.8-2.8c0,0,0,0,0,0V38.4
	c0-1.5,1.2-2.8,2.8-2.8c0,0,0,0,0,0h28.2c1.5,0,2.8,1.2,2.8,2.8c0,0,0,0,0,0V109z"/>
<path class="st2" d="M103.5,68.4H91.9c-0.7,0.1-1.2,0.7-1.1,1.4c0.1,0.6,0.5,1.1,1.1,1.1h11.6c0.7-0.1,1.2-0.7,1.1-1.4
	C104.5,68.9,104.1,68.5,103.5,68.4z"/>
<path class="st2" d="M103.5,76.5H91.9c-0.7,0.1-1.2,0.7-1.1,1.4c0.1,0.6,0.5,1.1,1.1,1.1h11.6c0.7-0.1,1.2-0.7,1.1-1.4
	C104.5,77,104.1,76.5,103.5,76.5z"/>
<linearGradient id="SVGID_4_" gradientUnits="userSpaceOnUse" x1="47.92" y1="99.495" x2="62" y2="99.495" gradientTransform="matrix(1 0 0 -1 0 152)">
	<stop  offset="0" style="stop-color:#00F282"/>
	<stop  offset="1" style="stop-color:#00BA8F"/>
</linearGradient>
<path class="st7" d="M61.7,51.6c-0.2-0.2-0.6-0.4-0.9-0.4h-4.6v-4.5c0.1-0.7-0.4-1.3-1.1-1.4s-1.3,0.4-1.4,1.1c0,0.1,0,0.1,0,0.2
	v4.5h-4.6c-0.7,0.1-1.2,0.7-1.1,1.4c0.1,0.6,0.5,1.1,1.1,1.1h4.6v4.5c-0.1,0.7,0.4,1.3,1.1,1.4s1.3-0.4,1.4-1.1c0-0.1,0-0.1,0-0.2
	v-4.5h4.6c0.7,0,1.2-0.6,1.2-1.2c0,0,0,0,0,0C62,52.2,61.9,51.9,61.7,51.6z"/>
<linearGradient id="SVGID_5_" gradientUnits="userSpaceOnUse" x1="47.92" y1="57.125" x2="62" y2="57.125" gradientTransform="matrix(1 0 0 -1 0 152)">
	<stop  offset="0" style="stop-color:#00F282"/>
	<stop  offset="1" style="stop-color:#00BA8F"/>
</linearGradient>
<path class="st8" d="M60.8,93.6H49.2C48.5,93.7,48,94.3,48,95c0.1,0.6,0.5,1.1,1.1,1.1h11.6c0.7-0.1,1.2-0.7,1.1-1.4
	C61.8,94.2,61.4,93.7,60.8,93.6z"/>
</svg>
