<?xml version="1.0" encoding="utf-8"?>
<!-- Generator: Adobe Illustrator 25.2.3, SVG Export Plug-In . SVG Version: 6.00 Build 0)  -->
<svg version="1.1" id="Layer_1" xmlns="http://www.w3.org/2000/svg" xmlns:xlink="http://www.w3.org/1999/xlink" x="0px" y="0px"
	 viewBox="0 0 150 150" style="enable-background:new 0 0 150 150;" xml:space="preserve">
<style type="text/css">
	.st0{fill:#B9F2B0;}
	.st1{opacity:0.3;fill:#22364C;enable-background:new    ;}
	.st2{fill:#FFFFFF;}
	.st3{opacity:0.2;fill:url(#SVGID_1_);enable-background:new    ;}
	.st4{fill:#22364C;}
	.st5{opacity:0.2;fill:url(#SVGID_2_);enable-background:new    ;}
	.st6{opacity:0.2;fill:url(#SVGID_3_);enable-background:new    ;}
	.st7{opacity:0.2;fill:url(#SVGID_4_);enable-background:new    ;}
	.st8{opacity:0.2;fill:url(#SVGID_5_);enable-background:new    ;}
	.st9{opacity:0.2;fill:url(#SVGID_6_);enable-background:new    ;}
	.st10{opacity:0.2;fill:url(#SVGID_7_);enable-background:new    ;}
	.st11{opacity:0.2;fill:url(#SVGID_8_);enable-background:new    ;}
	.st12{fill:url(#SVGID_9_);}
	.st13{fill:url(#SVGID_10_);}
</style>
<circle class="st0" cx="75" cy="75" r="75"/>
<path class="st1" d="M112.7,88.3c-4.6-4.6-11.4-6.5-17.7-4.9l-5.8-5.8c0.6-0.3,1.2-0.7,1.8-1.2L112.5,55c4.1-4.1,4.1-10.7,0-14.8
	l-2.6-2.6c-4.1-4.1-10.7-4.1-14.8,0L73.6,59c-0.5,0.5-0.9,1.1-1.2,1.7L66.6,55c0.4-1.5,0.6-3,0.6-4.5c0-4.9-2-9.7-5.5-13.2
	c-5.5-5.5-13.8-7-20.9-3.8c-0.4,0.2-0.8,0.6-0.9,1.1c-0.1,0.5,0.1,1,0.4,1.4l10.3,10.2l-6.4,6.4L34,42.4c-0.6-0.6-1.5-0.6-2.1,0
	c-0.1,0.1-0.2,0.3-0.3,0.5c-4.3,9.3-0.1,20.4,9.2,24.6c2.4,1.1,5.1,1.7,7.7,1.7c1.5,0,3-0.2,4.5-0.6l10.6,10.6L43.9,98.9l-5.2,1.6
	L32,111.2l6.8,6.8l10.8-6.7l1.6-5.2l19.7-19.7L81.5,97c-0.4,1.5-0.6,3-0.6,4.5c0,10.3,8.4,18.6,18.7,18.6c2.6,0,5.2-0.6,7.6-1.7
	c0.4-0.2,0.8-0.6,0.9-1.1c0.1-0.5-0.1-1-0.4-1.3l-10.2-10.2l6.4-6.4l10.2,10.2c0.6,0.6,1.5,0.6,2.1,0c0.1-0.1,0.2-0.3,0.3-0.5
	C119.7,102.1,118.2,93.8,112.7,88.3z"/>
<path class="st2" d="M56.9,45.6c-0.4-0.4-1-0.4-1.4,0c0,0,0,0,0,0l-7.9,7.9c-0.4,0.4-0.4,1,0,1.4c0,0,0,0,0,0l47.6,47.6
	c0.4,0.4,1,0.4,1.4,0l7.9-7.9c0.4-0.4,0.4-1,0-1.4L56.9,45.6z"/>
<linearGradient id="SVGID_1_" gradientUnits="userSpaceOnUse" x1="47.2942" y1="77.9625" x2="104.7408" y2="77.9625" gradientTransform="matrix(1 0 0 -1 0 152)">
	<stop  offset="0" style="stop-color:#00F282"/>
	<stop  offset="1" style="stop-color:#00BA8F"/>
</linearGradient>
<path class="st3" d="M56.9,45.6c-0.4-0.4-1-0.4-1.4,0c0,0,0,0,0,0l-7.9,7.9c-0.4,0.4-0.4,1,0,1.4c0,0,0,0,0,0l47.6,47.6
	c0.4,0.4,1,0.4,1.4,0l7.9-7.9c0.4-0.4,0.4-1,0-1.4L56.9,45.6z"/>
<path class="st2" d="M59.2,43.9c-0.4-0.4-1-0.4-1.4,0l-7.9,7.9c-0.4,0.4-0.4,1,0,1.4c0,0,0,0,0,0l47.6,47.6c0.4,0.4,1,0.4,1.4,0
	c0,0,0,0,0,0l7.9-7.9c0.4-0.4,0.4-1,0-1.4L59.2,43.9z"/>
<path class="st4" d="M106.6,91.1L59,43.5c-1.6-1.5-4.1-1.5-5.7,0l-7.9,7.9c-1.6,1.6-1.6,4.1,0,5.7c0,0,0,0,0,0L93,104.6
	c1.6,1.6,4.1,1.6,5.7,0l7.9-7.9C108.1,95.1,108.1,92.6,106.6,91.1C106.5,91.1,106.5,91.1,106.6,91.1L106.6,91.1z M104.4,94.6
	l-7.9,7.9c-0.4,0.4-1,0.4-1.4,0L47.6,54.9c-0.4-0.4-0.4-1,0-1.4c0,0,0,0,0,0l7.9-7.9c0.4-0.4,1-0.4,1.4,0c0,0,0,0,0,0l47.6,47.6
	C104.8,93.6,104.8,94.2,104.4,94.6z"/>
<path class="st2" d="M61.5,37.4c-4-4-9.9-5.5-15.4-3.9l9.7,9.7c0.6,0.6,0.6,1.5,0,2.1c0,0,0,0,0,0l-8.5,8.5c-0.6,0.6-1.5,0.6-2.1,0
	c0,0,0,0,0,0l-9.7-9.7c-2.4,8.3,2.4,16.9,10.7,19.3c5.4,1.6,11.3,0.1,15.3-3.9C67.6,53.4,67.6,43.6,61.5,37.4
	C61.5,37.4,61.5,37.4,61.5,37.4L61.5,37.4z"/>
<linearGradient id="SVGID_2_" gradientUnits="userSpaceOnUse" x1="34.8709" y1="103.5293" x2="66.1009" y2="103.5293" gradientTransform="matrix(1 0 0 -1 0 152)">
	<stop  offset="0" style="stop-color:#00F282"/>
	<stop  offset="1" style="stop-color:#00BA8F"/>
</linearGradient>
<path class="st5" d="M61.5,37.4c-4-4-9.9-5.5-15.4-3.9l9.7,9.7c0.6,0.6,0.6,1.5,0,2.1c0,0,0,0,0,0l-8.5,8.5c-0.6,0.6-1.5,0.6-2.1,0
	c0,0,0,0,0,0l-9.7-9.7c-2.4,8.3,2.4,16.9,10.7,19.3c5.4,1.6,11.3,0.1,15.3-3.9C67.6,53.4,67.6,43.6,61.5,37.4
	C61.5,37.4,61.5,37.4,61.5,37.4L61.5,37.4z"/>
<path class="st2" d="M63.4,35.2c-4-4-9.9-5.5-15.4-3.9l9.6,9.7c0.6,0.6,0.6,1.5,0,2.1l-8.5,8.5c-0.6,0.6-1.5,0.6-2.1,0l-9.7-9.7
	c-2.4,8.3,2.4,16.9,10.7,19.3c5.4,1.6,11.3,0.1,15.3-3.9C69.4,51.2,69.4,41.3,63.4,35.2C63.3,35.2,63.3,35.2,63.4,35.2L63.4,35.2z"
	/>
<path class="st4" d="M63.6,35.3c-5.5-5.5-13.8-7-20.9-3.8c-0.4,0.2-0.8,0.6-0.9,1.1c-0.1,0.5,0.1,1,0.4,1.4l10.3,10.2l-6.4,6.4
	L36,40.4c-0.6-0.6-1.5-0.6-2.1,0c-0.1,0.1-0.2,0.3-0.3,0.5c-4.2,9.4,0,20.4,9.3,24.6c7,3.2,15.2,1.7,20.7-3.7
	C70.9,54.4,70.9,42.6,63.6,35.3C63.7,35.3,63.6,35.3,63.6,35.3z M39.4,59.5c-4-4-5.5-9.9-3.9-15.4l9.7,9.7c0.6,0.6,1.5,0.6,2.1,0
	c0,0,0,0,0,0l8.5-8.5c0.6-0.6,0.6-1.5,0-2.1c0,0,0,0,0,0l-9.7-9.7c5.5-1.6,11.4-0.1,15.4,3.9c6,6.2,5.8,16.1-0.4,22.1
	C55,65.4,45.5,65.4,39.4,59.5z"/>
<path class="st2" d="M112.5,88.5c-6.1-6.1-16-6.2-22.1-0.1s-6.2,16-0.1,22.1c4,4.1,10,5.6,15.5,4l-9.7-9.7c-0.6-0.6-0.6-1.5,0-2.1
	c0,0,0,0,0,0l8.5-8.5c0.6-0.6,1.5-0.6,2.1,0c0,0,0,0,0,0l9.7,9.7C118,98.4,116.5,92.5,112.5,88.5z"/>
<linearGradient id="SVGID_3_" gradientUnits="userSpaceOnUse" x1="85.86" y1="52.535" x2="117.09" y2="52.535" gradientTransform="matrix(1 0 0 -1 0 152)">
	<stop  offset="0" style="stop-color:#00F282"/>
	<stop  offset="1" style="stop-color:#00BA8F"/>
</linearGradient>
<path class="st6" d="M112.5,88.5c-6.1-6.1-16-6.2-22.1-0.1s-6.2,16-0.1,22.1c4,4.1,10,5.6,15.5,4l-9.7-9.7c-0.6-0.6-0.6-1.5,0-2.1
	c0,0,0,0,0,0l8.5-8.5c0.6-0.6,1.5-0.6,2.1,0c0,0,0,0,0,0l9.7,9.7C118,98.4,116.5,92.5,112.5,88.5z"/>
<path class="st2" d="M114.6,86.4c-6.1-6.1-16-6.1-22.1-0.1c-6.1,6.1-6.1,16-0.1,22.1c4,4.1,10,5.6,15.5,4l-9.7-9.7
	c-0.6-0.6-0.6-1.5,0-2.1l8.5-8.5c0.6-0.6,1.5-0.6,2.1,0l9.7,9.7C120.1,96.4,118.5,90.5,114.6,86.4z"/>
<path class="st4" d="M114.7,86.3c-7.3-7.3-19-7.2-26.3,0c-7.3,7.3-7.2,19,0,26.3c5.5,5.5,13.7,7,20.8,3.8c0.4-0.2,0.8-0.6,0.9-1.1
	c0.1-0.5-0.1-1-0.4-1.3l-10.3-10.3l6.4-6.4l10.3,10.3c0.6,0.6,1.5,0.6,2.1,0c0.1-0.1,0.2-0.3,0.3-0.5
	C121.6,100.1,120.1,91.8,114.7,86.3z M106.8,94.2c-0.6-0.6-1.5-0.6-2.1,0c0,0,0,0,0,0l-8.5,8.5c-0.6,0.6-0.6,1.5,0,2.1c0,0,0,0,0,0
	l9.7,9.7c-5.5,1.6-11.4,0.1-15.4-3.9c-6-6.2-5.8-16.1,0.4-22.1c6.1-5.8,15.6-5.8,21.7,0c4,4,5.5,9.9,3.9,15.4L106.8,94.2z"/>
<rect x="45.8" y="86.7" transform="matrix(0.7071 -0.7071 0.7071 0.7071 -44.9135 69.25)" class="st2" width="30.6" height="4.2"/>
<linearGradient id="SVGID_4_" gradientUnits="userSpaceOnUse" x1="48.8257" y1="63.1556" x2="73.4542" y2="63.1556" gradientTransform="matrix(1 0 0 -1 -4.573176e-03 151.996)">
	<stop  offset="0" style="stop-color:#00F282"/>
	<stop  offset="1" style="stop-color:#00BA8F"/>
</linearGradient>
<polygon class="st7" points="48.8,98.2 70.5,76.5 73.4,79.5 51.8,101.2 "/>
<rect x="47.5" y="85.1" transform="matrix(0.7071 -0.7071 0.7071 0.7071 -43.2552 69.9383)" class="st2" width="30.6" height="4.2"/>
<path class="st4" d="M70.5,72.3L44.6,98.2l7.2,7.2l25.9-25.9L70.5,72.3z M73.5,79.5l-21.7,21.7l-3-3l21.7-21.6L73.5,79.5z"/>
<polygon class="st2" points="42.7,101 37.8,108.8 41.2,112.2 49,107.3 50.1,103.7 46.3,99.9 "/>
<linearGradient id="SVGID_5_" gradientUnits="userSpaceOnUse" x1="37.81" y1="45.965" x2="50.09" y2="45.965" gradientTransform="matrix(1 0 0 -1 0 152)">
	<stop  offset="0" style="stop-color:#00F282"/>
	<stop  offset="1" style="stop-color:#00BA8F"/>
</linearGradient>
<polygon class="st8" points="42.7,101 37.8,108.8 41.2,112.2 49,107.3 50.1,103.7 46.3,99.9 "/>
<polygon class="st2" points="44.6,98.9 39.7,106.7 43.1,110.1 50.9,105.2 52,101.6 48.2,97.8 "/>
<path class="st4" d="M47.1,96.5l-6.4,2L34,109.2l6.8,6.8l10.8-6.7l2-6.4L47.1,96.5z M49,107.3l-7.8,4.9l-3.4-3.4l4.9-7.8l3.6-1.1
	l3.8,3.8L49,107.3z"/>
<rect x="75.8" y="66.7" transform="matrix(0.7071 -0.7071 0.7071 0.7071 -28.0298 76.2458)" class="st2" width="4.4" height="10.6"/>
<linearGradient id="SVGID_6_" gradientUnits="userSpaceOnUse" x1="72.7401" y1="80.0519" x2="83.3042" y2="80.0519" gradientTransform="matrix(1 0 0 -1 -2.860943e-04 152.0098)">
	<stop  offset="0" style="stop-color:#00F282"/>
	<stop  offset="1" style="stop-color:#00BA8F"/>
</linearGradient>
<polygon class="st9" points="72.7,69.8 75.8,66.7 83.3,74.1 80.2,77.2 "/>
<rect x="74.4" y="68.1" transform="matrix(0.7071 -0.7071 0.7071 0.7071 -29.4673 75.6483)" class="st2" width="4.4" height="10.6"/>
<path class="st4" d="M75.8,62.4l-7.3,7.3l11.7,11.7l7.3-7.3L75.8,62.4z M75.8,66.7l7.5,7.5l-3.1,3.1l-7.5-7.5L75.8,66.7z"/>
<path class="st2" d="M67.6,72.4l0.8-0.8c0.5-0.5,1.3-0.5,1.9,0l8.1,8.1c0.5,0.5,0.5,1.3,0,1.9l-0.8,0.8c-0.5,0.5-1.3,0.5-1.9,0
	l-8.1-8.1C67.1,73.7,67.1,72.9,67.6,72.4z"/>
<linearGradient id="SVGID_7_" gradientUnits="userSpaceOnUse" x1="67.25" y1="75.0456" x2="78.7937" y2="75.0456" gradientTransform="matrix(1 0 0 -1 -8.110775e-03 152.0045)">
	<stop  offset="0" style="stop-color:#00F282"/>
	<stop  offset="1" style="stop-color:#00BA8F"/>
</linearGradient>
<path class="st10" d="M67.6,72.4l0.8-0.8c0.5-0.5,1.3-0.5,1.9,0l8.1,8.1c0.5,0.5,0.5,1.3,0,1.9l-0.8,0.8c-0.5,0.5-1.3,0.5-1.9,0
	l-8.1-8.1C67.1,73.7,67.1,72.9,67.6,72.4z"/>
<path class="st2" d="M68.7,71.3l0.8-0.8c0.5-0.5,1.3-0.5,1.9,0l8.1,8.1c0.5,0.5,0.5,1.3,0,1.9l-0.8,0.8c-0.5,0.5-1.3,0.5-1.9,0
	l-8.1-8.1C68.2,72.6,68.2,71.8,68.7,71.3z"/>
<path class="st4" d="M80.5,77.6l-8.1-8.1c-1.7-1.7-4.4-1.7-6.1,0l-0.8,0.8c-1.7,1.7-1.7,4.4,0,6.1l8.1,8.1c1.7,1.7,4.4,1.7,6.1,0
	l0.8-0.8C82.2,82,82.2,79.3,80.5,77.6C80.5,77.6,80.5,77.6,80.5,77.6z M77.6,82.3c-0.5,0.5-1.3,0.5-1.8,0c0,0,0,0,0,0l-8.1-8.1
	c-0.5-0.5-0.5-1.3,0-1.8c0,0,0,0,0,0l0.8-0.8c0.5-0.5,1.3-0.5,1.8,0l8.1,8.1c0.5,0.5,0.5,1.3,0,1.8L77.6,82.3z"/>
<path class="st2" d="M112.4,40.2l-2.6-2.6c-2.9-2.9-7.7-2.9-10.6,0L77.6,59.1c-1.4,1.4-1.4,3.7,0,5.1c0,0,0,0,0,0l8.1,8.1
	c1.4,1.4,3.7,1.4,5.1,0c0,0,0,0,0,0l21.5-21.5C115.3,47.9,115.3,43.2,112.4,40.2z"/>
<linearGradient id="SVGID_8_" gradientUnits="userSpaceOnUse" x1="76.5812" y1="97.5857" x2="114.5501" y2="97.5857" gradientTransform="matrix(1 0 0 -1 0 152)">
	<stop  offset="0" style="stop-color:#00F282"/>
	<stop  offset="1" style="stop-color:#00BA8F"/>
</linearGradient>
<path class="st11" d="M112.4,40.2l-2.6-2.6c-2.9-2.9-7.7-2.9-10.6,0L77.6,59.1c-1.4,1.4-1.4,3.7,0,5.1c0,0,0,0,0,0l8.1,8.1
	c1.4,1.4,3.7,1.4,5.1,0c0,0,0,0,0,0l21.5-21.5C115.3,47.9,115.3,43.2,112.4,40.2z"/>
<path class="st2" d="M114.1,38.1l-2.6-2.7c-2.8-2.9-7.5-3-10.4-0.2c-0.1,0-0.1,0.1-0.2,0.2l-21.5,22c-1.4,1.4-1.4,3.8,0,5.2l8.1,8.3
	c1.4,1.4,3.6,1.4,5,0.1c0,0,0.1-0.1,0.1-0.1l21.5-22C117,46,117,41.1,114.1,38.1z"/>
<path class="st4" d="M114.5,38.1l-2.6-2.6c-4.1-4.1-10.8-4.1-14.9,0c0,0,0,0,0,0L75.5,57c-2.6,2.6-2.6,6.8,0,9.3l8.1,8.1
	c2.6,2.6,6.8,2.6,9.3,0L114.5,53C118.6,48.9,118.6,42.2,114.5,38.1C114.5,38.1,114.5,38.1,114.5,38.1z M85.7,72.3l-8.1-8.1
	c-1.4-1.4-1.4-3.7,0-5.1c0,0,0,0,0,0l21.5-21.5c2.9-2.9,7.7-2.9,10.6,0l2.6,2.6c2.9,2.9,2.9,7.7,0,10.6L90.8,72.3
	C89.4,73.7,87.2,73.8,85.7,72.3C85.7,72.3,85.7,72.3,85.7,72.3z"/>
<linearGradient id="SVGID_9_" gradientUnits="userSpaceOnUse" x1="81.25" y1="98.9726" x2="102.41" y2="98.9726" gradientTransform="matrix(1 0 0 -1 0 152)">
	<stop  offset="0" style="stop-color:#00F282"/>
	<stop  offset="1" style="stop-color:#00BA8F"/>
</linearGradient>
<path class="st12" d="M102.4,43.7c0-0.3-0.1-0.6-0.4-0.9c-0.5-0.5-1.3-0.5-1.8,0L81.6,61.5c-0.2,0.2-0.4,0.5-0.4,0.9
	c0,0.3,0.1,0.7,0.4,0.9c0.5,0.5,1.3,0.5,1.8,0L102,44.6C102.3,44.4,102.4,44,102.4,43.7z"/>
<linearGradient id="SVGID_10_" gradientUnits="userSpaceOnUse" x1="86.3809" y1="93.8446" x2="107.5406" y2="93.8446" gradientTransform="matrix(1 0 0 -1 0 152)">
	<stop  offset="0" style="stop-color:#00F282"/>
	<stop  offset="1" style="stop-color:#00BA8F"/>
</linearGradient>
<path class="st13" d="M107.2,47.9c-0.5-0.5-1.3-0.5-1.8,0L86.7,66.6c-0.5,0.5-0.5,1.3,0,1.8c0.2,0.2,0.6,0.4,0.9,0.4
	c0.3,0,0.6-0.1,0.9-0.4l18.7-18.7C107.7,49.2,107.7,48.4,107.2,47.9C107.2,48,107.2,47.9,107.2,47.9z"/>
</svg>
