<?xml version="1.0" encoding="utf-8"?>
<!-- Generator: Adobe Illustrator 25.2.3, SVG Export Plug-In . SVG Version: 6.00 Build 0)  -->
<svg version="1.1" id="Layer_1" xmlns="http://www.w3.org/2000/svg" xmlns:xlink="http://www.w3.org/1999/xlink" x="0px" y="0px"
	 viewBox="0 0 150 150" style="enable-background:new 0 0 150 150;" xml:space="preserve">
<style type="text/css">
	.st0{fill:#B0B7F2;}
	.st1{opacity:0.3;fill:#22364C;enable-background:new    ;}
	.st2{fill:#FFFFFF;}
	.st3{opacity:0.2;fill:url(#SVGID_1_);enable-background:new    ;}
	.st4{fill:#22364C;}
	.st5{opacity:0.2;}
	.st6{fill:url(#SVGID_2_);}
	.st7{fill:url(#SVGID_3_);}
	.st8{fill:url(#SVGID_4_);}
	.st9{opacity:0.2;fill:url(#SVGID_5_);enable-background:new    ;}
	.st10{opacity:0.2;fill:url(#SVGID_6_);enable-background:new    ;}
	.st11{opacity:0.2;fill:url(#SVGID_7_);enable-background:new    ;}
	.st12{fill:url(#SVGID_8_);}
</style>
<circle class="st0" cx="75" cy="75" r="75"/>
<path class="st1" d="M113.3,42H30.7c-5,0-9.1,4.1-9.1,9.1V105c0.1,5,4.1,9,9.1,9h82.5c5,0,9.1-4.1,9.1-9.1V51
	C122.3,46.1,118.2,42.1,113.3,42z"/>
<path class="st2" d="M34.3,41.9h81.2c3.7,0,6.8,3,6.8,6.8v52.5c0,3.7-3,6.8-6.8,6.8H34.3c-3.7,0-6.8-3-6.8-6.8V48.6
	C27.5,44.9,30.6,41.9,34.3,41.9z"/>
<linearGradient id="SVGID_1_" gradientUnits="userSpaceOnUse" x1="27.54" y1="77.11" x2="122.24" y2="77.11" gradientTransform="matrix(1 0 0 -1 0 152)">
	<stop  offset="0" style="stop-color:#00F282"/>
	<stop  offset="1" style="stop-color:#00BA8F"/>
</linearGradient>
<path class="st3" d="M34.3,41.9h81.2c3.7,0,6.8,3,6.8,6.8v52.5c0,3.7-3,6.8-6.8,6.8H34.3c-3.7,0-6.8-3-6.8-6.8V48.6
	C27.5,44.9,30.6,41.9,34.3,41.9z"/>
<polygon class="st2" points="28.3,41.9 122.2,106.9 122.2,41.9 "/>
<path class="st2" d="M36.4,44h76.7c3.5,0,6.3,2.8,6.3,6.3v48.7c0,3.5-2.8,6.3-6.3,6.3H36.4c-3.5,0-6.3-2.8-6.3-6.3V50.3
	C30,46.8,32.9,44,36.4,44z"/>
<path class="st4" d="M116.3,39H33.7c-5,0-9.1,4.1-9.1,9.1V102c0.1,5,4.1,9,9.1,9h82.5c5,0,9.1-4.1,9.1-9.1V48
	C125.3,43.1,121.2,39.1,116.3,39z M122.3,101.9c0,3.4-2.7,6.1-6.1,6.1l0,0H33.6c-3.4,0-6.1-2.7-6.1-6.1l0,0V47.9
	c0-3.4,2.7-6.1,6.1-6.1h82.5c3.4,0,6.1,2.7,6.1,6.1L122.3,101.9z"/>
<g class="st5">
	
		<linearGradient id="SVGID_2_" gradientUnits="userSpaceOnUse" x1="31.42" y1="102.91" x2="36.01" y2="102.91" gradientTransform="matrix(1 0 0 -1 0 152)">
		<stop  offset="0" style="stop-color:#00F282"/>
		<stop  offset="1" style="stop-color:#00BA8F"/>
	</linearGradient>
	<path class="st6" d="M36,49.1c0-1.3-1-2.3-2.3-2.3s-2.3,1-2.3,2.3c0,1.3,1,2.3,2.3,2.3l0,0C35,51.4,36,50.4,36,49.1z"/>
	
		<linearGradient id="SVGID_3_" gradientUnits="userSpaceOnUse" x1="39.45" y1="102.91" x2="44.05" y2="102.91" gradientTransform="matrix(1 0 0 -1 0 152)">
		<stop  offset="0" style="stop-color:#00F282"/>
		<stop  offset="1" style="stop-color:#00BA8F"/>
	</linearGradient>
	<path class="st7" d="M41.8,46.8c-1.3,0-2.3,1-2.3,2.3s1,2.3,2.3,2.3c1.3,0,2.3-1,2.3-2.3l0,0C44,47.8,43,46.8,41.8,46.8z"/>
	
		<linearGradient id="SVGID_4_" gradientUnits="userSpaceOnUse" x1="47.38" y1="102.91" x2="51.98" y2="102.91" gradientTransform="matrix(1 0 0 -1 0 152)">
		<stop  offset="0" style="stop-color:#00F282"/>
		<stop  offset="1" style="stop-color:#00BA8F"/>
	</linearGradient>
	<path class="st8" d="M52,49.1c0-1.3-1-2.3-2.3-2.3s-2.3,1-2.3,2.3c0,1.3,1,2.3,2.3,2.3l0,0C51,51.4,52,50.4,52,49.1z"/>
</g>
<path class="st4" d="M37.2,47.9c0-1.3-1-2.3-2.3-2.3s-2.3,1-2.3,2.3c0,1.3,1,2.3,2.3,2.3l0,0C36.1,50.2,37.2,49.2,37.2,47.9z"/>
<path class="st4" d="M42.9,45.6c-1.3,0-2.3,1-2.3,2.3s1,2.3,2.3,2.3c1.3,0,2.3-1,2.3-2.3l0,0C45.2,46.7,44.2,45.6,42.9,45.6z"/>
<path class="st4" d="M53.1,47.9c0-1.3-1-2.3-2.3-2.3c-1.3,0-2.3,1-2.3,2.3s1,2.3,2.3,2.3c0,0,0,0,0,0C52.1,50.2,53.1,49.2,53.1,47.9
	z"/>
<linearGradient id="SVGID_5_" gradientUnits="userSpaceOnUse" x1="48.56" y1="68.945" x2="59.21" y2="68.945" gradientTransform="matrix(1 0 0 -1 0 152)">
	<stop  offset="0" style="stop-color:#00F282"/>
	<stop  offset="1" style="stop-color:#00BA8F"/>
</linearGradient>
<rect x="48.6" y="70.8" class="st9" width="10.6" height="24.6"/>
<path class="st4" d="M63.5,96.7H47.2V66.4h16.3V96.7z M49.9,94h10.9V69.1H49.9V94z"/>
<linearGradient id="SVGID_6_" gradientUnits="userSpaceOnUse" x1="68.42" y1="66.08" x2="78.8" y2="66.08" gradientTransform="matrix(1 0 0 -1 0 152)">
	<stop  offset="0" style="stop-color:#00F282"/>
	<stop  offset="1" style="stop-color:#00BA8F"/>
</linearGradient>
<rect x="68.4" y="76.5" class="st10" width="10.4" height="18.9"/>
<path class="st4" d="M83.4,96.7H67.1V72.2h16.3V96.7z M69.8,94h10.9V74.9H69.8V94z"/>
<linearGradient id="SVGID_7_" gradientUnits="userSpaceOnUse" x1="87.83" y1="62.44" x2="98.29" y2="62.44" gradientTransform="matrix(1 0 0 -1 0 152)">
	<stop  offset="0" style="stop-color:#00F282"/>
	<stop  offset="1" style="stop-color:#00BA8F"/>
</linearGradient>
<rect x="87.8" y="83.8" class="st11" width="10.5" height="11.6"/>
<path class="st4" d="M102.8,96.7H86.5v-17h16.3V96.7z M89.2,94h10.9V82.4H89.2V94z"/>
<linearGradient id="SVGID_8_" gradientUnits="userSpaceOnUse" x1="61.96" y1="86.7587" x2="102.46" y2="86.7587" gradientTransform="matrix(1 0 0 -1 0 152)">
	<stop  offset="0" style="stop-color:#00F282"/>
	<stop  offset="1" style="stop-color:#00BA8F"/>
</linearGradient>
<path class="st12" d="M102.5,73.3l-5-6.4l-1,2.5L63.8,56.2c-0.7-0.3-1.5,0-1.8,0.6c-0.3,0.7,0,1.5,0.6,1.8c0.1,0,0.1,0.1,0.2,0.1
	l32.6,13.3l-1,2.5L102.5,73.3z"/>
<path class="st4" d="M114,96.7H36c-0.8,0-1.4-0.6-1.4-1.4S35.2,94,36,94h78c0.7-0.1,1.4,0.5,1.5,1.2c0.1,0.7-0.5,1.4-1.2,1.5
	C114.2,96.7,114.1,96.7,114,96.7L114,96.7z"/>
</svg>
