<?xml version="1.0" encoding="utf-8"?>
<!-- Generator: Adobe Illustrator 25.2.3, SVG Export Plug-In . SVG Version: 6.00 Build 0)  -->
<svg version="1.1" id="Layer_1" xmlns="http://www.w3.org/2000/svg" xmlns:xlink="http://www.w3.org/1999/xlink" x="0px" y="0px"
	 viewBox="0 0 150 150" style="enable-background:new 0 0 150 150;" xml:space="preserve">
<style type="text/css">
	.st0{fill:#B0F2EA;}
	.st1{opacity:0.3;fill:#22364C;enable-background:new    ;}
	.st2{fill:#FFFFFF;}
	.st3{opacity:0.2;fill:url(#SVGID_1_);enable-background:new    ;}
	.st4{fill:#22364C;}
	.st5{opacity:0.2;fill:url(#SVGID_2_);enable-background:new    ;}
	.st6{opacity:0.2;fill:url(#SVGID_3_);enable-background:new    ;}
	.st7{fill:url(#SVGID_4_);}
</style>
<circle class="st0" cx="75" cy="75" r="75"/>
<path class="st1" d="M73.4,34c-23.5,0-42.5,19.1-42.5,42.6c0,9,2.8,17.8,8.2,25.1l-6,15.3c-0.3,0.8,0.1,1.7,0.9,2
	c0.2,0.1,0.4,0.1,0.6,0.1c0.2,0,0.4,0,0.5-0.1l16.4-6c20.1,12.1,46.3,5.6,58.4-14.5s5.6-46.3-14.5-58.4C88.8,36.1,81.2,34,73.4,34
	L73.4,34z"/>
<path class="st2" d="M76.8,32.3c-22.6,0-41,18.4-40.9,41.1c0,8.9,3,17.6,8.4,24.7l-6.3,16.1l17.1-6.3c19.1,12.1,44.5,6.4,56.6-12.7
	s6.4-44.5-12.7-56.6C92.3,34.4,84.6,32.2,76.8,32.3z"/>
<linearGradient id="SVGID_1_" gradientUnits="userSpaceOnUse" x1="35.8153" y1="74.775" x2="105.63" y2="74.775" gradientTransform="matrix(1 0 0 -1 0 152)">
	<stop  offset="0" style="stop-color:#00F282"/>
	<stop  offset="1" style="stop-color:#00BA8F"/>
</linearGradient>
<path class="st3" d="M81.4,110.2c-7.7,0-15.3-2.1-21.8-6.2l-19,7.5l8.2-17.4c-12.5-16.4-10.9-39.4,3.7-53.9
	c-18.2,13.4-22.2,39-8.8,57.2c0.2,0.2,0.3,0.4,0.5,0.6l-6.3,16.1l17.1-6.3c16.1,10.1,37.1,7.8,50.6-5.6
	C98.6,107.5,90.1,110.2,81.4,110.2z"/>
<path class="st4" d="M119.1,73.2c0-23.4-19-42.3-42.4-42.3c-23.4,0-42.3,19-42.3,42.4c0,9,2.9,17.7,8.1,24.9l0.1,0.1v0.1l-6,15.3
	c-0.3,0.7,0.1,1.5,0.8,1.8c0.3,0.1,0.7,0.1,1,0l16.5-6H55c20,12.1,46,5.6,58.1-14.4C117.1,88.5,119.2,81,119.1,73.2L119.1,73.2z
	 M76.8,112.8c-7.4,0-14.7-2.1-21-6.1c-0.4-0.2-0.8-0.3-1.2-0.1l-14.2,5.2l5.2-13.3c0.2-0.4,0.1-1-0.2-1.3c-5.3-6.9-8.1-15.3-8.1-24
	c0-21.9,17.7-39.6,39.6-39.6s39.6,17.7,39.6,39.6C116.4,95.1,98.7,112.8,76.8,112.8C76.8,112.8,76.8,112.8,76.8,112.8z"/>
<linearGradient id="SVGID_2_" gradientUnits="userSpaceOnUse" x1="62.74" y1="74.765" x2="88.18" y2="74.765" gradientTransform="matrix(1 0 0 -1 0 152)">
	<stop  offset="0" style="stop-color:#00F282"/>
	<stop  offset="1" style="stop-color:#00BA8F"/>
</linearGradient>
<path class="st5" d="M86.7,75.8H64.2c-0.8,0.1-1.4,0.8-1.4,1.6c0.1,0.7,0.6,1.3,1.4,1.4h22.5c0.8-0.1,1.4-0.8,1.4-1.6
	C88,76.4,87.4,75.8,86.7,75.8z"/>
<linearGradient id="SVGID_3_" gradientUnits="userSpaceOnUse" x1="62.74" y1="65.39" x2="88.18" y2="65.39" gradientTransform="matrix(1 0 0 -1 0 152)">
	<stop  offset="0" style="stop-color:#00F282"/>
	<stop  offset="1" style="stop-color:#00BA8F"/>
</linearGradient>
<path class="st6" d="M86.7,85.1H64.2c-0.8,0-1.5,0.7-1.5,1.5s0.7,1.5,1.5,1.5l0,0h22.5c0.8,0,1.5-0.7,1.5-1.5S87.5,85.1,86.7,85.1z"
	/>
<path class="st4" d="M88.9,45.4H64.6c-4.6,0-8.3,3.7-8.3,8.3v38.8c0,4.6,3.7,8.3,8.3,8.3h24.3c4.6,0,8.3-3.7,8.3-8.3V53.7
	C97.2,49.1,93.5,45.4,88.9,45.4z M94.5,92.5c0,3.1-2.5,5.5-5.5,5.5H64.6c-3.1,0-5.5-2.5-5.5-5.5V53.7c0-3.1,2.5-5.5,5.5-5.5h24.3
	c3.1,0,5.5,2.5,5.5,5.5V92.5z"/>
<path class="st4" d="M89.3,75.9c0-0.7-0.6-1.3-1.3-1.3c0,0,0,0,0,0H65.5c-0.7,0-1.3,0.6-1.3,1.3c0,0.7,0.6,1.3,1.3,1.3H88
	C88.7,77.2,89.3,76.6,89.3,75.9C89.3,75.9,89.3,75.9,89.3,75.9z"/>
<path class="st4" d="M89.3,85.3c0-0.7-0.6-1.3-1.3-1.3c0,0,0,0,0,0H65.5c-0.7-0.1-1.3,0.5-1.4,1.2c-0.1,0.7,0.5,1.3,1.2,1.4
	c0.1,0,0.2,0,0.2,0H88C88.7,86.5,89.3,86,89.3,85.3z"/>
<linearGradient id="SVGID_4_" gradientUnits="userSpaceOnUse" x1="69.4645" y1="89.9938" x2="84.0945" y2="89.9938" gradientTransform="matrix(1 0 0 -1 0 152)">
	<stop  offset="0" style="stop-color:#00F282"/>
	<stop  offset="1" style="stop-color:#00BA8F"/>
</linearGradient>
<path class="st7" d="M83.8,61.1l-6.6-6.1c-0.3-0.3-0.7-0.3-1,0l-6.6,6.1c-0.3,0.3-0.3,0.8,0,1.1c0.1,0.1,0.3,0.2,0.5,0.2h0.8v6.5
	c0,0.2,0.2,0.4,0.4,0.4h10.6c0.2,0,0.4-0.2,0.4-0.4v-6.5h0.8c0.4,0,0.8-0.4,0.7-0.8C84.1,61.4,84,61.2,83.8,61.1z"/>
</svg>
